<?xml version="1.0" encoding="utf-8"?>
<!-- Generator: Adobe Illustrator 21.1.0, SVG Export Plug-In . SVG Version: 6.00 Build 0)  -->
<svg version="1.1" id="Layer_1" xmlns="http://www.w3.org/2000/svg" xmlns:xlink="http://www.w3.org/1999/xlink" x="0px" y="0px"
	 viewBox="0 0 842 313" style="enable-background:new 0 0 842 313;" xml:space="preserve">
<style type="text/css">
	.st0{fill:#FFFFFF;}
	.st1{font-family:'Raleway-Thin';}
	.st2{font-size:188.4432px;}
	.st3{fill:#499F2B;}
	.st4{fill:#0D5E00;}
	.st5{fill:#00261C;}
</style>
<g>
	<text transform="matrix(1 0 0 1 276.7958 248.3339)" class="st0 st1 st2">Frøken</text>
	<g>
		<path class="st0" d="M124.2,312.6c-68.7,0-124.6-55.9-124.6-124.6c0-40.2,19.6-78.2,52.5-101.6l4.2-3l-4.1-11l72.2-72.2l72.2,72.2
			l-4.2,11.2l4.2,3c32.7,23.4,52.2,61.3,52.2,101.3C248.8,256.8,192.9,312.6,124.2,312.6z M54.2,94.9C25,117,7.7,151.5,7.7,188.1
			c0,64.3,52.3,116.6,116.6,116.6c64.3,0,116.6-52.3,116.6-116.6c0-36.4-17.2-70.9-46.2-92.9l-7.2,18.7l-2.7-2.1
			c-2.3-1.9-4.8-3.6-7.3-5.3l-1.7-1.1l11.6-30.8l-62.8-62.8L61.6,74.5l11.5,30.6l-1.7,1.1c-2.5,1.6-5,3.4-7.4,5.3l-2.7,2.1
			L54.2,94.9z"/>
	</g>
	<circle class="st3" cx="124.2" cy="188" r="99.8"/>
	<path class="st4" d="M24.4,188c0,55.1,44.7,99.8,99.8,99.8c55.1,0,99.8-44.7,99.8-99.8c0-31.7-14.8-60-37.8-78.2l-7.1,18.5
		c16.2,14.9,26.3,36.2,26.3,59.8c0,44.6-36.2,81-80.8,81.2l-0.2,0.6l-0.2-0.5c-44.8,0-81.2-36.4-81.2-81.2
		c0-23.8,10.3-45.2,26.6-60.1l-7.1-18.5C39.3,127.8,24.4,156.2,24.4,188z"/>
	<path class="st5" d="M193.4,91.2l-7.2,18.5c23,18.3,37.8,46.5,37.8,78.2c0,55.1-44.7,99.8-99.8,99.8c-55.1,0-99.8-44.7-99.8-99.8
		c0-31.8,14.9-60.2,38.1-78.5L55.4,91C25,112.6,5.2,148.1,5.2,188.1c0,65.6,53.4,119.1,119.1,119.1c65.6,0,119.1-53.4,119.1-119.1
		C243.3,148.2,223.6,112.8,193.4,91.2z"/>
	<g>
		<polygon class="st5" points="124.4,248.3 124.4,8.1 190.2,73.9 		"/>
	</g>
	<g>
		<polygon class="st4" points="124.4,248.3 58.7,73.9 124.4,8.1 		"/>
	</g>
</g>
</svg>
