<?xml version="1.0" encoding="utf-8"?>
<!-- Generator: Adobe Illustrator 21.1.0, SVG Export Plug-In . SVG Version: 6.00 Build 0)  -->
<svg version="1.1" id="Layer_1" xmlns="http://www.w3.org/2000/svg" xmlns:xlink="http://www.w3.org/1999/xlink" x="0px" y="0px"
	 viewBox="0 0 852 318.2" style="enable-background:new 0 0 852 318.2;" xml:space="preserve">
<style type="text/css">
	.st0{opacity:0.1;}
	.st1{fill:#FFFFFF;}
	.st2{opacity:0.9;}
	.st3{fill:#499F2B;}
	.st4{fill:#0D5E00;}
	.st5{fill:#00261C;}
	.st6{opacity:0.19;enable-background:new    ;}
	.st7{enable-background:new    ;}
</style>
<g class="st0">
	<g>
		<path class="st1" d="M129.2,316.7c-69.5,0-126.1-56.6-126.1-126.1c0-40.7,19.9-79.2,53.1-102.8l3.3-2.3l-4-10.8l73.9-73.9
			l73.9,73.8l-4.1,11l3.3,2.3c33.1,23.7,52.8,62,52.8,102.5C255.3,260.1,198.7,316.7,129.2,316.7z M58.5,99.9
			c-27.8,21.8-44.3,55.6-44.3,90.8c0,63.5,51.6,115.1,115.1,115.1s115.1-51.6,115.1-115.1c0-35.1-16.4-68.8-44-90.5l-7.2,18.7
			l-4.3-3.3c-2.3-1.9-4.8-3.6-7.2-5.2l-2.7-1.8l11.7-31l-61.1-61.1l-61.3,61l11.6,30.8l-2.7,1.8c-2.4,1.5-4.9,3.3-7.3,5.2l-4.3,3.4
			L58.5,99.9z"/>
		<path d="M129.4,2.8L201.6,75l-4.2,11.2l4.2,3c32.7,23.4,52.2,61.3,52.2,101.3c0,68.9-55.9,124.7-124.6,124.7S4.6,259.3,4.6,190.6
			c0-40.2,19.6-78.2,52.5-101.6l4.2-3l-4.1-11L129.4,2.8 M66.3,116.2l-7.1-18.7c-29.2,22.1-46.5,56.6-46.5,93.2
			c0,64.3,52.3,116.6,116.6,116.6S245.9,255,245.9,190.7c0-36.4-17.2-70.9-46.2-92.9l-7.2,18.7l-2.7-2.1c-2.3-1.9-4.8-3.6-7.3-5.3
			l-1.7-1.1l11.6-30.8l-62.8-62.8l-63,62.7l11.5,30.6l-1.7,1.1c-2.5,1.6-5,3.4-7.4,5.3L66.3,116.2 M129.4-1.4l-2.1,2.1L55.1,72.9
			l-1.4,1.4l0.7,1.8l3.3,8.8l-2.3,1.7c-33.7,23.9-53.8,62.8-53.8,104c0,70.4,57.2,127.6,127.6,127.6s127.6-57.3,127.6-127.7
			c0-41-20-79.8-53.5-103.7l-2.3-1.7l3.4-9l0.7-1.8l-1.4-1.4L131.5,0.7L129.4-1.4L129.4-1.4z M70.1,77.9l59.5-59.3l59.3,59.3
			l-10.9,29l-0.9,2.3l2,1.3l1.7,1.1c2.5,1.7,4.9,3.3,7,5.1l0,0l0,0l2.7,2.1l3.2,2.5l1.5-3.8l5.7-14.9c26.3,21.5,41.9,54.1,41.9,88
			c0,62.6-51,113.6-113.6,113.6s-113.6-51-113.6-113.6c0-17.5,4.1-35,12-50.7c7.2-14.5,17.6-27.4,30.2-37.6l5.7,14.9l1.4,3.8
			l3.2-2.5l2.7-2.1c2.4-1.9,4.8-3.6,7.2-5.1l1.7-1.1l2-1.3l-0.8-2.3L70.1,77.9L70.1,77.9z"/>
	</g>
</g>
<g class="st2">
	<g>
		<g>
			<path class="st1" d="M129.2,315.2c-68.7,0-124.6-55.9-124.6-124.6c0-40.2,19.6-78.2,52.5-101.6l4.2-3l-4.1-11l72.2-72.2L201.6,75
				l-4.2,11.2l4.2,3c32.7,23.4,52.2,61.3,52.2,101.3C253.8,259.4,197.9,315.2,129.2,315.2z M59.2,97.5
				c-29.2,22.1-46.5,56.6-46.5,93.2c0,64.3,52.3,116.6,116.6,116.6S245.9,255,245.9,190.7c0-36.4-17.2-70.9-46.2-92.9l-7.2,18.7
				l-2.7-2.1c-2.3-1.9-4.8-3.6-7.3-5.3l-1.7-1.1l11.6-30.8l-62.8-62.8l-63,62.7l11.5,30.6l-1.7,1.1c-2.5,1.6-5,3.4-7.4,5.3l-2.7,2.1
				L59.2,97.5z"/>
		</g>
	</g>
	<g>
		<circle class="st3" cx="129.2" cy="190.6" r="99.8"/>
	</g>
	<g>
		<path class="st4" d="M29.4,190.6c0,55.1,44.7,99.8,99.8,99.8s99.8-44.7,99.8-99.8c0-31.7-14.8-60-37.8-78.2l-7.1,18.5
			c16.2,14.9,26.3,36.2,26.3,59.8c0,44.6-36.2,81-80.8,81.2l-0.2,0.6l-0.2-0.5C84.4,272,48,235.6,48,190.8
			c0-23.8,10.3-45.2,26.6-60.1l-7.1-18.5C44.3,130.4,29.4,158.8,29.4,190.6z"/>
	</g>
	<g>
		<path class="st5" d="M198.4,93.8l-7.2,18.5c23,18.3,37.8,46.5,37.8,78.2c0,55.1-44.7,99.8-99.8,99.8s-99.8-44.7-99.8-99.8
			c0-31.8,14.9-60.2,38.1-78.5l-7.1-18.4c-30.4,21.6-50.2,57.1-50.2,97.1c0,65.6,53.4,119.1,119.1,119.1
			c65.6,0,119.1-53.4,119.1-119.1C248.3,150.8,228.6,115.4,198.4,93.8z"/>
	</g>
	<g>
		<g>
			<polygon class="st5" points="129.4,250.9 129.4,10.7 195.2,76.5 			"/>
		</g>
	</g>
	<g>
		<g>
			<polygon class="st4" points="129.4,250.9 63.7,76.5 129.4,10.7 			"/>
		</g>
	</g>
</g>
<g class="st6">
	<g>
		<g>
			<polygon points="299.8,251.6 299.8,116.3 387.4,116.3 387.4,121.7 305,121.7 305,179.6 375.4,179.6 375.4,185 305,185 305,251.6 
							"/>
			<path d="M386.6,117.1v3.8h-82.3v59.5h70.3v3.8h-70.3v66.7h-3.8V117.1H386.6 M388.1,115.6h-1.5h-86.1H299v1.5v133.8v1.5h1.5h3.8
				h1.5v-1.5v-65.2h68.8h1.5v-1.5v-3.8v-1.5h-1.5h-68.8v-56.5h80.8h1.5v-1.5v-3.8L388.1,115.6L388.1,115.6z"/>
		</g>
		<g>
			<path d="M403,251.6v-99.3h5.3v23c3.3-5.9,7.4-10.7,12.5-14.7c5.8-4.6,12-7.2,18.6-8c1.3-0.1,2.4-0.2,3.5-0.3s2.1-0.1,2.8-0.1h0.8
				v5.3h-0.9c-9.1,0.4-17,3.4-23.5,8.8c-6.6,5.6-11.2,13.2-13.7,22.7v62.6H403z"/>
			<path d="M445.7,153.1v3.8h-0.1c-9.3,0.4-17.3,3.4-24,9c-6.7,5.7-11.4,13.4-14,23.2v61.8h-3.8v-97.8h3.8v25.3
				c3.4-6.9,7.9-12.6,13.7-17.1c5.7-4.5,11.8-7.1,18.2-7.8c1.3-0.1,2.4-0.2,3.5-0.3S445,153.1,445.7,153.1 M447.2,151.6h-1.5
				c-0.7,0-1.7,0-2.8,0.1c-1.1,0.1-2.2,0.2-3.5,0.3c-6.7,0.7-13.1,3.5-19,8.1c-4.5,3.5-8.2,7.6-11.3,12.5v-19.5v-1.5h-1.5h-3.8h-1.5
				v1.5v97.8v1.5h1.5h3.8h1.5v-1.5v-61.6c2.5-9.3,7-16.8,13.5-22.3c6.4-5.3,14.2-8.3,23.1-8.6h0.1h1.5v-1.5v-3.8v-1.5H447.2z"/>
		</g>
		<g>
			<path d="M499,253.6c-4.6,0-8.8-0.6-12.9-1.9c-4-1.3-7.6-3-10.9-5.1l-3,5.2h-5.9v-1.1l4.5-7.3c-5.8-4.8-10.4-10.8-13.7-17.6
				c-3.5-7.1-5.3-15-5.3-23.4c0-7,1.3-13.7,3.8-19.8c2.4-6.1,5.9-11.6,10.2-16.3c4.5-4.8,9.5-8.5,15.1-11.2
				c5.9-2.8,11.9-4.2,18.2-4.2c4.4,0,8.7,0.7,12.8,2c3.8,1.2,7.4,3,10.8,5.3l3.6-5.7h6.7l-5.7,9.1c5.6,4.7,10.1,10.6,13.6,17.5
				c3.6,7.1,5.4,15,5.4,23.3c0,7-1.3,13.6-3.8,19.7c-2.5,6.3-5.9,11.6-10.1,16.3c-4.3,4.7-9.2,8.3-15,11.1
				C511.6,252.2,505.4,253.6,499,253.6z M478,242.1c6.3,4.1,13.4,6.2,20.9,6.2c5.6,0,11-1.3,16.2-3.7c5.1-2.4,9.7-5.8,13.6-10
				c4-4.3,7-9.1,9.1-14.7c2.3-5.6,3.3-11.4,3.3-17.8c0-7.3-1.6-14.2-4.6-20.6c-2.9-6-6.9-11.2-11.7-15.4L478,242.1z M499,156.2
				c-5.6,0-11,1.3-16.2,3.7c-5.2,2.5-9.7,5.9-13.5,10.1c-3.8,4.2-6.9,9.2-9.1,14.9c-2.2,5.5-3.2,11.5-3.2,17.8
				c0,7.3,1.6,14.3,4.6,20.8c2.9,6.1,6.9,11.3,11.7,15.4l46.7-76.2c-3.1-1.9-6.3-3.4-9.7-4.6C506.8,156.8,503,156.2,499,156.2z"/>
			<path d="M499.1,151.6c4.4,0,8.6,0.7,12.6,2s7.8,3.2,11.3,5.6l3.8-6h4.9l-5.3,8.5c5.8,4.8,10.4,10.7,13.9,17.7s5.3,14.7,5.3,23
				c0,6.8-1.2,13.3-3.7,19.4c-2.5,6.2-5.8,11.5-10,16.1s-9.1,8.2-14.8,10.9s-11.7,4.1-18.1,4.1c-4.4,0-8.6-0.6-12.7-1.9
				c-4.1-1.3-7.9-3.1-11.4-5.5l-3.2,5.5H467v-0.1l4.7-7.7c-5.9-4.8-10.6-10.7-14-17.8c-3.5-7.1-5.2-14.8-5.2-23.1
				c0-6.9,1.2-13.4,3.7-19.5c2.4-6.1,5.8-11.5,10.1-16.1c4.3-4.6,9.2-8.3,14.9-11S492.8,151.6,499.1,151.6 M473.6,240l47.5-77.6
				c-3.3-2.1-6.8-3.8-10.5-5.1s-7.6-1.9-11.6-1.9c-5.8,0-11.3,1.3-16.5,3.8s-9.8,5.9-13.7,10.3c-3.9,4.3-7,9.4-9.2,15.1
				c-2.2,5.6-3.3,11.7-3.3,18.1c0,7.5,1.6,14.6,4.7,21.1S468.3,235.7,473.6,240 M498.9,249c5.8,0,11.3-1.3,16.5-3.8
				c5.2-2.5,9.8-5.9,13.8-10.2s7.1-9.2,9.3-14.9c2.3-5.7,3.4-11.7,3.4-18.1c0-7.5-1.6-14.5-4.7-20.9c-3.1-6.4-7.3-11.8-12.6-16.2
				L477,242.3C483.7,246.8,491,249,498.9,249 M499.1,150.1c-6.4,0-12.5,1.4-18.5,4.2c-5.8,2.7-10.8,6.4-15.4,11.3
				c-4.4,4.8-7.9,10.3-10.4,16.6c-2.5,6.2-3.8,12.9-3.8,20c0,8.6,1.8,16.6,5.4,23.8c3.2,6.8,7.7,12.6,13.4,17.5l-4,6.6l-0.2,0.4v0.4
				v0.1v1.5h1.5h4.7h0.9l0.4-0.7l2.4-4.1c3.2,2,6.6,3.6,10.4,4.8c4.2,1.3,8.5,2,13.2,2c6.5,0,12.8-1.4,18.7-4.2
				c5.9-2.8,10.9-6.5,15.3-11.2c4.4-4.8,7.7-10.2,10.3-16.6c2.5-6.2,3.8-12.9,3.8-20c0-8.5-1.8-16.4-5.5-23.7
				c-3.4-6.8-7.9-12.6-13.3-17.3l4.6-7.4l1.4-2.3h-2.7h-4.9H526l-0.4,0.7l-3,4.7c-3.3-2.1-6.8-3.8-10.4-4.9
				C507.9,150.8,503.5,150.1,499.1,150.1L499.1,150.1z M473.2,237.7c-4.5-4-8.2-8.9-10.9-14.6c-3-6.3-4.6-13.2-4.6-20.5
				c0-6.2,1.1-12.2,3.2-17.6c2.1-5.6,5.1-10.5,8.9-14.6c3.7-4.2,8.1-7.5,13.2-10c5-2.4,10.4-3.7,15.9-3.7c3.9,0,7.7,0.6,11.1,1.8
				c3.1,1.1,6.1,2.5,8.9,4.2L473.2,237.7L473.2,237.7z M479,241.8l45.9-74.6c4.5,4,8.2,8.9,10.9,14.6c3,6.2,4.5,13,4.5,20.2
				c0,6.3-1.1,12.1-3.3,17.5c-2.1,5.5-5.1,10.2-9,14.4c-3.9,4.1-8.3,7.5-13.4,9.9c-5,2.4-10.4,3.7-15.9,3.7
				C491.8,247.5,485.1,245.6,479,241.8L479,241.8z"/>
		</g>
		<g>
			<polygon points="641.7,251.6 600.4,196 574.7,219.3 574.7,251.5 569.3,251.5 569.3,112.7 574.7,112.7 574.7,212.3 640.3,152.8 
				647.6,152.8 604.3,192.4 648.1,251.6 			"/>
			<path d="M573.9,113.4V214l66.7-60.5h5.1l-42.4,38.8l43.3,58.6h-4.5l0,0l-41.6-56L573.9,219v31.8h-3.8V113.4H573.9 M575.4,111.9
				h-1.5h-3.8h-1.5v1.5v137.4v1.5h1.5h3.8h1.5v-1.5v-31.1l24.9-22.5l40.6,54.7l0.4,0.6h0.8h4.5h3l-1.8-2.4l-42.5-57.5l41.4-37.9
				l2.8-2.6h-3.9h-5.1H640l-0.4,0.4l-64.2,58.1v-97.2V111.9L575.4,111.9z"/>
		</g>
		<g>
			<path d="M700.7,253.5c-6.4,0-12.7-1.4-18.5-4.2c-5.8-2.7-10.9-6.5-15.2-11.3c-4.3-4.7-7.8-10.3-10.3-16.6
				c-2.6-6.3-3.9-13.1-3.9-20.2c0-7,1.2-13.6,3.7-19.7c2.4-6.1,5.8-11.5,10-16c4.4-4.7,9.4-8.3,14.9-10.8c5.7-2.6,11.8-4,18.3-4
				c6.7,0,13,1.4,18.7,4.1c5.8,2.6,10.8,6.3,15.1,10.9c4.3,4.6,7.7,10,10.2,16.2c2.6,6.3,3.9,13.1,3.9,20.1v2.9h-89.4
				c0.5,5.8,2,11.4,4.3,16.5c2.3,5.3,5.4,10,9.4,14c3.9,4,8.3,7.1,13.3,9.3c5.1,2.3,10.4,3.4,15.8,3.4c3.7,0,7.2-0.5,10.8-1.5
				c3.4-1,6.7-2.3,9.9-4.1c3-1.8,5.8-3.9,8.1-6.4c2.3-2.4,4.2-5.1,5.6-8.1l0.3-0.6l5,1.3l-0.3,0.8c-1.4,3.4-3.4,6.6-6,9.5
				c-2.8,3-5.9,5.5-9.2,7.4c-3.5,2.1-7.3,3.8-11.5,5C709.4,252.9,705.2,253.5,700.7,253.5z M742.1,199.6c-0.5-6.1-1.8-11.8-4-17.1
				c-2.4-5.5-5.5-10.2-9.1-14c-3.7-3.9-8.1-6.9-13.1-9.1c-4.8-2.2-10.2-3.3-15.9-3.3s-11.1,1.1-15.9,3.3c-5.1,2.3-9.5,5.4-13.1,9.2
				c-3.8,4-6.8,8.7-8.9,14.1c-2.1,5.1-3.4,10.8-3.9,16.9L742.1,199.6L742.1,199.6z"/>
			<path d="M699.7,151.6c6.5,0,12.7,1.3,18.4,4c5.7,2.6,10.7,6.2,14.9,10.7s7.6,9.9,10.1,16c2.5,6.2,3.8,12.8,3.8,19.8v2.1h-89.5
				c0.5,6.3,2,12.2,4.4,17.6c2.4,5.5,5.6,10.2,9.5,14.2s8.4,7.2,13.5,9.5s10.5,3.5,16.1,3.5c3.8,0,7.4-0.5,11-1.5s6.9-2.4,10.1-4.2
				c3.1-1.8,5.9-4,8.3-6.5c2.4-2.5,4.3-5.3,5.7-8.3l3.6,0.9c-1.4,3.4-3.4,6.5-5.9,9.3c-2.6,2.8-5.6,5.3-9,7.3
				c-3.5,2.1-7.2,3.7-11.3,4.9c-4.2,1.3-8.4,1.9-12.7,1.9c-6.4,0-12.5-1.4-18.2-4.1s-10.7-6.4-15-11.1c-4.3-4.7-7.7-10.2-10.2-16.4
				s-3.8-12.8-3.8-19.9c0-6.9,1.2-13.4,3.6-19.4c2.4-6,5.7-11.3,9.9-15.8s9.1-8.1,14.7-10.6C687.3,152.9,693.3,151.6,699.7,151.6
				 M657.4,200.4h85.5l0,0l0,0c-0.4-6.5-1.8-12.6-4.1-18.1c-2.4-5.5-5.5-10.3-9.3-14.2c-3.8-4-8.3-7.1-13.3-9.3
				c-5-2.3-10.4-3.4-16.2-3.4s-11.2,1.1-16.2,3.4c-5,2.3-9.5,5.4-13.3,9.4s-6.9,8.8-9.1,14.3C659.1,188,657.8,194,657.4,200.4
				 M699.7,150.1c-6.6,0-12.9,1.4-18.6,4c-5.6,2.5-10.7,6.2-15.2,10.9c-4.3,4.6-7.7,10.1-10.2,16.3c-2.5,6.1-3.7,12.9-3.7,20
				s1.3,14,3.9,20.5c2.6,6.4,6.1,12.1,10.5,16.9c4.4,4.8,9.6,8.7,15.5,11.4c5.9,2.8,12.3,4.2,18.8,4.2c4.6,0,8.9-0.6,13.1-2
				c4.2-1.2,8-2.9,11.6-5c3.4-2,6.5-4.5,9.3-7.6c2.7-3,4.8-6.3,6.2-9.7l0.7-1.6l-1.7-0.4l-3.6-0.9l-1.2-0.3l-0.5,1.1
				c-1.4,2.9-3.2,5.6-5.4,7.9c-2.3,2.4-5,4.5-8,6.2c-3.2,1.8-6.4,3.1-9.7,4.1c-3.5,1-7,1.4-10.6,1.4c-5.3,0-10.5-1.1-15.5-3.4
				c-4.8-2.2-9.2-5.3-13-9.2s-6.9-8.6-9.2-13.8c-2.1-4.8-3.5-10-4.1-15.5H747h1.5v-1.5V202c0-7.1-1.3-13.9-3.9-20.4
				c-2.6-6.3-6.1-11.8-10.4-16.5c-4.3-4.7-9.5-8.4-15.4-11C712.9,151.5,706.5,150.1,699.7,150.1L699.7,150.1z M659,198.9
				c0.5-5.7,1.8-11,3.8-15.8c2.1-5.3,5.1-9.9,8.8-13.8c3.5-3.7,7.9-6.8,12.8-9.1c4.7-2.2,9.9-3.3,15.6-3.3s10.9,1.1,15.6,3.3
				c4.9,2.2,9.2,5.2,12.8,9c3.6,3.7,6.6,8.3,9,13.8c2.1,4.9,3.4,10.3,3.9,16L659,198.9L659,198.9z"/>
		</g>
		<g>
			<path d="M840.7,251.6v-55.2c0-14-2-24.4-5.8-30.9c-3.9-6.3-9.9-9.4-18.5-9.4c-4.8,0-9.4,0.8-13.7,2.5c-4.4,1.6-8.5,3.9-12.5,7
				c-3.8,2.9-7.1,6.4-10,10.5c-2.7,3.9-4.9,8.3-6.3,13.1v62.4h-5.3v-99.3h5.3v23.2c1.8-2.9,3.9-5.8,6.4-8.4
				c3.2-3.4,6.8-6.3,10.6-8.6s7.8-4.1,12.3-5.6c4.5-1.4,8.9-2,13.2-2c10.3,0,17.9,3.8,22.6,11.1c4.7,7.4,7.1,19,7.1,34.4v55.2H840.7
				z"/>
			<path d="M816.3,151.5c10,0,17.4,3.6,22,10.8s7,18.6,7,34v54.6h-0.1h-3.8v-54.5c0-14.3-2-24.7-5.9-31.3c-4-6.5-10.3-9.8-19.1-9.8
				c-4.8,0-9.5,0.8-14,2.5c-4.6,1.7-8.8,4.1-12.7,7.1s-7.3,6.6-10.2,10.7c-2.9,4.1-5,8.6-6.4,13.4v61.8h-3.8V153h3.8v25.3
				c2-3.9,4.6-7.5,7.7-10.8c3.1-3.3,6.6-6.2,10.4-8.5c3.8-2.3,7.8-4.1,12.1-5.5C807.6,152.2,811.9,151.5,816.3,151.5 M816.3,150
				c-4.4,0-8.8,0.7-13.4,2.1c-4.5,1.5-8.6,3.3-12.4,5.7c-3.8,2.3-7.4,5.3-10.7,8.8c-1.9,2-3.6,4.2-5.1,6.4v-19.8v-1.5h-1.5h-3.8
				h-1.5v1.5V251v1.5h1.5h3.8h1.5V251v-61.6c1.4-4.7,3.4-9,6.1-12.7c2.9-4,6.2-7.5,9.9-10.4c3.9-3,8-5.3,12.3-6.9
				c4.2-1.6,8.8-2.4,13.5-2.4c8.2,0,14.1,3,17.8,9.1c3.8,6.4,5.7,16.6,5.7,30.5v54.5v1.5h1.5h3.8h0.1h1.5v-1.5v-54.6
				c0-15.6-2.4-27.3-7.2-34.8C834.7,153.9,826.9,150,816.3,150L816.3,150z"/>
		</g>
	</g>
</g>
<g class="st7">
	<g>
		<path class="st1" d="M300.5,250.9V117.1h86.1v3.8h-82.3v59.5h70.3v3.8h-70.3v66.7H300.5z"/>
		<path class="st1" d="M445.6,156.9c-9.3,0.4-17.3,3.4-24,9c-6.7,5.7-11.4,13.4-14,23.2v61.8h-3.8v-97.8h3.8v25.3
			c3.4-6.9,7.9-12.6,13.7-17.1c5.7-4.5,11.8-7.1,18.2-7.8c1.3-0.1,2.4-0.2,3.5-0.3s2-0.1,2.7-0.1v3.8L445.6,156.9L445.6,156.9z"/>
		<path class="st1" d="M467,250.9l4.7-7.7c-5.9-4.8-10.6-10.7-14-17.8c-3.5-7.1-5.2-14.8-5.2-23.1c0-6.9,1.2-13.4,3.7-19.5
			c2.4-6.1,5.8-11.5,10.1-16.1c4.3-4.6,9.2-8.3,14.9-11c5.7-2.7,11.6-4.1,17.9-4.1c4.4,0,8.6,0.7,12.6,2s7.8,3.2,11.3,5.6l3.8-6h4.9
			l-5.3,8.5c5.8,4.8,10.4,10.7,13.9,17.7s5.3,14.7,5.3,23c0,6.8-1.2,13.3-3.7,19.4c-2.5,6.2-5.8,11.5-10,16.1s-9.1,8.2-14.8,10.9
			s-11.7,4.1-18.1,4.1c-4.4,0-8.6-0.6-12.7-1.9c-4.1-1.3-7.9-3.1-11.4-5.5l-3.2,5.5L467,250.9L467,250.9z M456.3,202.7
			c0,7.5,1.6,14.6,4.7,21.1s7.3,11.9,12.6,16.2l47.5-77.6c-3.3-2.1-6.8-3.8-10.5-5.1s-7.6-1.9-11.6-1.9c-5.8,0-11.3,1.3-16.5,3.8
			s-9.8,5.9-13.7,10.3c-3.9,4.3-7,9.4-9.2,15.1C457.4,190.2,456.3,196.3,456.3,202.7z M498.9,249c5.8,0,11.3-1.3,16.5-3.8
			c5.2-2.5,9.8-5.9,13.8-10.2s7.1-9.2,9.3-14.9c2.3-5.7,3.4-11.7,3.4-18.1c0-7.5-1.6-14.5-4.7-20.9c-3.1-6.4-7.3-11.8-12.6-16.2
			L477,242.3C483.7,246.8,491,249,498.9,249z"/>
		<path class="st1" d="M642.1,250.9l-41.6-56L573.9,219v31.8h-3.8V113.4h3.8V214l66.7-60.5h5.1l-42.4,38.8l43.3,58.6L642.1,250.9
			L642.1,250.9z"/>
		<path class="st1" d="M700.7,252.8c-6.4,0-12.5-1.4-18.2-4.1c-5.7-2.7-10.7-6.4-15-11.1c-4.3-4.7-7.7-10.2-10.2-16.4
			s-3.8-12.8-3.8-19.9c0-6.9,1.2-13.4,3.6-19.4c2.4-6,5.7-11.3,9.9-15.8s9.1-8.1,14.7-10.6c5.6-2.6,11.6-3.9,18-3.9
			c6.5,0,12.7,1.3,18.4,4c5.7,2.6,10.7,6.2,14.9,10.7s7.6,9.9,10.1,16c2.5,6.2,3.8,12.8,3.8,19.8v2.1h-89.5c0.5,6.3,2,12.2,4.4,17.6
			c2.4,5.5,5.6,10.2,9.5,14.2s8.4,7.2,13.5,9.5s10.5,3.5,16.1,3.5c3.8,0,7.4-0.5,11-1.5s6.9-2.4,10.1-4.2c3.1-1.8,5.9-4,8.3-6.5
			c2.4-2.5,4.3-5.3,5.7-8.3l3.6,0.9c-1.4,3.4-3.4,6.5-5.9,9.3c-2.6,2.8-5.6,5.3-9,7.3c-3.5,2.1-7.2,3.7-11.3,4.9
			C709.2,252.2,705,252.8,700.7,252.8z M742.9,200.4c-0.4-6.5-1.8-12.6-4.1-18.1c-2.4-5.5-5.5-10.3-9.3-14.2
			c-3.8-4-8.3-7.1-13.3-9.3c-5-2.3-10.4-3.4-16.2-3.4s-11.2,1.1-16.2,3.4c-5,2.3-9.5,5.4-13.3,9.4s-6.9,8.8-9.1,14.3
			c-2.3,5.5-3.6,11.5-4,17.9L742.9,200.4L742.9,200.4z"/>
		<path class="st1" d="M845.2,250.9h-3.8v-54.5c0-14.3-2-24.7-5.9-31.3c-4-6.5-10.3-9.8-19.1-9.8c-4.8,0-9.5,0.8-14,2.5
			c-4.6,1.7-8.8,4.1-12.7,7.1s-7.3,6.6-10.2,10.7c-2.9,4.1-5,8.6-6.4,13.4v61.8h-3.8V153h3.8v25.3c2-3.9,4.6-7.5,7.7-10.8
			c3.1-3.3,6.6-6.2,10.4-8.5c3.8-2.3,7.8-4.1,12.1-5.5c4.3-1.3,8.6-2,13-2c10,0,17.4,3.6,22,10.8s7,18.6,7,34L845.2,250.9
			L845.2,250.9z"/>
	</g>
</g>
<g>
	<path class="st1" d="M279.9,278.3v-1.3h8.1v1.3H279.9z"/>
	<path class="st1" d="M311.2,268.7c-1.3-1.4-3.1-2.2-5.5-2.2c-1.9,0-3.4,0.4-4.2,1.1s-1.3,1.7-1.3,3c0,0.6,0.1,1.2,0.3,1.6
		c0.2,0.4,0.6,0.8,1,1.1c0.5,0.3,1.1,0.6,1.8,0.8c0.7,0.2,1.6,0.4,2.6,0.6c1.1,0.2,2,0.5,2.9,0.7c0.9,0.3,1.6,0.6,2.2,1
		c0.6,0.4,1.1,0.9,1.4,1.5c0.3,0.6,0.5,1.3,0.5,2.2c0,0.9-0.2,1.6-0.5,2.3c-0.3,0.7-0.8,1.2-1.5,1.6s-1.4,0.8-2.2,1
		c-0.9,0.2-1.8,0.3-2.9,0.3c-3.1,0-5.7-1-7.9-3l0.8-1.1c0.8,0.9,1.9,1.6,3.1,2.1c1.2,0.5,2.6,0.8,4.1,0.8c1.7,0,3.1-0.3,4.1-1
		s1.5-1.6,1.5-2.9c0-0.7-0.1-1.2-0.4-1.7c-0.3-0.5-0.6-0.9-1.2-1.2c-0.5-0.3-1.2-0.6-1.9-0.9c-0.8-0.2-1.7-0.5-2.7-0.7
		c-1.1-0.2-2-0.5-2.8-0.7s-1.5-0.6-2-1c-0.6-0.4-1-0.8-1.2-1.4c-0.3-0.5-0.4-1.2-0.4-2c0-0.9,0.2-1.7,0.5-2.4
		c0.3-0.7,0.8-1.3,1.4-1.8c0.6-0.5,1.4-0.8,2.2-1.1c0.9-0.2,1.8-0.4,2.9-0.4c1.3,0,2.4,0.2,3.4,0.6c1,0.4,1.9,1,2.7,1.8L311.2,268.7
		z"/>
	<path class="st1" d="M322.3,285.6c-1,0-2-0.2-2.9-0.6c-0.9-0.4-1.6-1-2.3-1.7c-0.6-0.7-1.1-1.5-1.5-2.4c-0.4-0.9-0.5-1.9-0.5-2.9
		c0-1,0.2-2,0.5-2.9c0.4-0.9,0.9-1.7,1.5-2.4c0.6-0.7,1.4-1.2,2.3-1.6c0.9-0.4,1.8-0.6,2.8-0.6c1,0,2,0.2,2.9,0.6
		c0.9,0.4,1.6,0.9,2.3,1.6c0.6,0.7,1.1,1.5,1.5,2.4c0.4,0.9,0.5,1.9,0.5,2.9c0,0.1,0,0.2,0,0.3c0,0.1,0,0.2,0,0.3h-12.8
		c0.1,0.8,0.3,1.6,0.6,2.3c0.3,0.7,0.8,1.3,1.3,1.9c0.5,0.5,1.1,0.9,1.8,1.2c0.7,0.3,1.4,0.4,2.2,0.4c0.5,0,1-0.1,1.5-0.2
		c0.5-0.1,0.9-0.3,1.4-0.6c0.4-0.2,0.8-0.5,1.1-0.9c0.3-0.3,0.6-0.7,0.8-1.1l1.2,0.3c-0.2,0.5-0.5,1-0.9,1.4
		c-0.4,0.4-0.9,0.8-1.4,1.1c-0.5,0.3-1.1,0.6-1.8,0.7C323.6,285.5,323,285.6,322.3,285.6z M328,277.5c-0.1-0.9-0.2-1.6-0.6-2.4
		c-0.3-0.7-0.7-1.3-1.3-1.8c-0.5-0.5-1.1-0.9-1.8-1.2c-0.7-0.3-1.4-0.4-2.2-0.4c-0.8,0-1.5,0.1-2.2,0.4c-0.7,0.3-1.3,0.7-1.8,1.2
		c-0.5,0.5-0.9,1.1-1.2,1.8s-0.5,1.5-0.5,2.3H328z"/>
	<path class="st1" d="M338.6,285.6c-1,0-2-0.2-2.9-0.6c-0.9-0.4-1.6-1-2.3-1.7c-0.6-0.7-1.1-1.5-1.5-2.4c-0.4-0.9-0.5-1.9-0.5-2.9
		c0-1,0.2-2,0.5-2.9c0.4-0.9,0.9-1.7,1.5-2.4c0.6-0.7,1.4-1.2,2.3-1.6c0.9-0.4,1.8-0.6,2.8-0.6c1,0,2,0.2,2.9,0.6
		c0.9,0.4,1.6,0.9,2.3,1.6c0.6,0.7,1.1,1.5,1.5,2.4c0.4,0.9,0.5,1.9,0.5,2.9c0,0.1,0,0.2,0,0.3c0,0.1,0,0.2,0,0.3h-12.8
		c0.1,0.8,0.3,1.6,0.6,2.3c0.3,0.7,0.8,1.3,1.3,1.9c0.5,0.5,1.1,0.9,1.8,1.2c0.7,0.3,1.4,0.4,2.2,0.4c0.5,0,1-0.1,1.5-0.2
		c0.5-0.1,0.9-0.3,1.4-0.6c0.4-0.2,0.8-0.5,1.1-0.9c0.3-0.3,0.6-0.7,0.8-1.1l1.2,0.3c-0.2,0.5-0.5,1-0.9,1.4
		c-0.4,0.4-0.9,0.8-1.4,1.1c-0.5,0.3-1.1,0.6-1.8,0.7C340,285.5,339.3,285.6,338.6,285.6z M344.4,277.5c-0.1-0.9-0.2-1.6-0.6-2.4
		c-0.3-0.7-0.7-1.3-1.3-1.8c-0.5-0.5-1.1-0.9-1.8-1.2c-0.7-0.3-1.4-0.4-2.2-0.4c-0.8,0-1.5,0.1-2.2,0.4c-0.7,0.3-1.3,0.7-1.8,1.2
		c-0.5,0.5-0.9,1.1-1.2,1.8s-0.5,1.5-0.5,2.3H344.4z"/>
	<path class="st1" d="M354.8,285.6c-1,0-1.9-0.2-2.8-0.6c-0.9-0.4-1.6-1-2.2-1.7s-1.1-1.5-1.5-2.4c-0.3-0.9-0.5-1.8-0.5-2.8
		c0-1,0.2-2,0.5-2.9s0.8-1.7,1.4-2.4c0.6-0.7,1.3-1.2,2.1-1.7c0.8-0.4,1.7-0.6,2.7-0.6c0.6,0,1.2,0.1,1.8,0.3
		c0.6,0.2,1.1,0.4,1.6,0.7c0.5,0.3,0.9,0.7,1.3,1.1c0.4,0.4,0.7,0.8,1,1.3v-9h1.4v18.5c0,0.5,0.2,0.7,0.6,0.7v1.3
		c-0.1,0-0.2,0-0.3,0c-0.1,0-0.1,0-0.2,0c-0.4,0-0.7-0.1-1-0.4c-0.3-0.3-0.4-0.6-0.4-0.9v-1.6c-0.6,1-1.4,1.7-2.4,2.3
		C356.9,285.3,355.9,285.6,354.8,285.6z M355,284.3c0.5,0,1-0.1,1.6-0.3c0.6-0.2,1.1-0.5,1.6-0.9c0.5-0.4,0.9-0.8,1.3-1.2
		c0.4-0.5,0.6-1,0.6-1.5v-4.8c-0.2-0.5-0.5-1-0.9-1.5c-0.4-0.5-0.8-0.9-1.3-1.2c-0.5-0.3-1-0.6-1.6-0.8c-0.6-0.2-1.1-0.3-1.6-0.3
		c-0.8,0-1.6,0.2-2.3,0.5c-0.7,0.4-1.3,0.8-1.8,1.4c-0.5,0.6-0.9,1.3-1.1,2c-0.3,0.8-0.4,1.5-0.4,2.3c0,0.8,0.1,1.6,0.4,2.4
		c0.3,0.7,0.7,1.4,1.2,2c0.5,0.6,1.1,1,1.8,1.4S354.2,284.3,355,284.3z"/>
	<path class="st1" d="M370.6,285.6c-1.1,0-2.2-0.2-3.2-0.6c-1-0.4-1.9-0.9-2.7-1.7l0.7-1c0.8,0.7,1.6,1.2,2.4,1.6
		c0.8,0.3,1.8,0.5,2.8,0.5c1.3,0,2.3-0.3,3.1-0.8c0.8-0.5,1.2-1.3,1.2-2.2c0-0.4-0.1-0.8-0.3-1.1c-0.2-0.3-0.5-0.6-0.9-0.8
		c-0.4-0.2-0.9-0.4-1.5-0.6s-1.3-0.3-2-0.5c-0.8-0.2-1.5-0.4-2.1-0.6c-0.6-0.2-1.1-0.4-1.5-0.7c-0.4-0.3-0.7-0.6-0.9-1
		c-0.2-0.4-0.3-0.8-0.3-1.4c0-0.7,0.1-1.4,0.4-1.9c0.3-0.5,0.7-1,1.2-1.3s1.1-0.6,1.7-0.8s1.3-0.3,2.1-0.3c1.1,0,2.1,0.2,3,0.6
		c0.9,0.4,1.6,0.9,2,1.5l-0.8,0.8c-0.5-0.6-1.1-1-1.9-1.3c-0.8-0.3-1.6-0.4-2.5-0.4c-0.5,0-1,0.1-1.5,0.2c-0.5,0.1-0.9,0.3-1.2,0.5
		c-0.4,0.2-0.6,0.6-0.8,0.9c-0.2,0.4-0.3,0.8-0.3,1.4c0,0.4,0.1,0.8,0.2,1c0.1,0.3,0.4,0.5,0.7,0.7c0.3,0.2,0.7,0.4,1.2,0.5
		s1.1,0.3,1.7,0.5c0.9,0.2,1.7,0.4,2.4,0.6c0.7,0.2,1.3,0.5,1.8,0.8s0.8,0.7,1.1,1.1c0.3,0.4,0.4,0.9,0.4,1.6c0,1.3-0.5,2.3-1.5,3.1
		C373.7,285.2,372.3,285.6,370.6,285.6z"/>
	<path class="st1" d="M387.3,285.3v-13.4h-2v-1.1h2v-0.5c0-1.8,0.4-3.2,1.1-4.2c0.7-1,1.7-1.5,3-1.5c0.6,0,1.1,0.1,1.6,0.3
		s1,0.4,1.3,0.7l-0.5,1c-0.3-0.2-0.6-0.4-1-0.5c-0.4-0.1-0.8-0.2-1.2-0.2c-1,0-1.7,0.4-2.2,1.1c-0.5,0.8-0.8,1.9-0.8,3.3v0.5h4.1
		v1.1h-4.1v13.4H387.3z"/>
	<path class="st1" d="M400.9,285.6c-1,0-2-0.2-2.8-0.6c-0.9-0.4-1.6-0.9-2.3-1.6c-0.6-0.7-1.1-1.5-1.5-2.4c-0.4-0.9-0.5-1.9-0.5-2.9
		c0-1,0.2-2,0.5-2.9c0.4-0.9,0.9-1.7,1.5-2.4c0.6-0.7,1.4-1.2,2.3-1.6c0.9-0.4,1.8-0.6,2.8-0.6c1,0,1.9,0.2,2.8,0.6
		c0.9,0.4,1.6,0.9,2.3,1.6c0.6,0.7,1.1,1.5,1.5,2.4c0.4,0.9,0.5,1.9,0.5,2.9c0,1-0.2,2-0.5,2.9c-0.4,0.9-0.9,1.7-1.5,2.4
		c-0.6,0.7-1.4,1.2-2.3,1.6S402,285.6,400.9,285.6z M395.2,278.1c0,0.9,0.1,1.7,0.4,2.4c0.3,0.8,0.7,1.4,1.2,2
		c0.5,0.6,1.1,1,1.8,1.3s1.4,0.5,2.2,0.5c0.8,0,1.5-0.2,2.2-0.5c0.7-0.3,1.3-0.8,1.8-1.4c0.5-0.6,0.9-1.2,1.2-2
		c0.3-0.8,0.4-1.6,0.4-2.5c0-0.9-0.2-1.7-0.4-2.4c-0.3-0.8-0.7-1.4-1.2-2c-0.5-0.6-1.1-1-1.8-1.4c-0.7-0.3-1.4-0.5-2.2-0.5
		c-0.8,0-1.5,0.2-2.2,0.5c-0.7,0.3-1.3,0.8-1.8,1.4c-0.5,0.6-0.9,1.3-1.2,2C395.4,276.4,395.2,277.3,395.2,278.1z"/>
	<path class="st1" d="M418.3,272c-1.3,0-2.5,0.4-3.4,1.2c-1,0.7-1.7,1.8-2.1,3v9.1h-1.4v-14.6h1.3v3.6c0.5-1,1.2-1.9,2-2.5
		c0.8-0.6,1.7-1,2.7-1.1c0.2,0,0.4,0,0.5,0s0.3,0,0.4,0V272z"/>
	<path class="st1" d="M434,284.6c-0.1,0-0.2,0.1-0.4,0.2c-0.2,0.1-0.4,0.2-0.7,0.3c-0.3,0.1-0.6,0.2-0.9,0.3
		c-0.3,0.1-0.7,0.1-1.1,0.1s-0.8-0.1-1.1-0.2c-0.3-0.1-0.6-0.3-0.9-0.5c-0.3-0.2-0.5-0.5-0.6-0.8c-0.1-0.3-0.2-0.7-0.2-1.1v-11h-2
		v-1.1h2v-5h1.4v5h3.4v1.1h-3.4v10.6c0,0.5,0.2,0.9,0.6,1.2c0.4,0.3,0.8,0.4,1.3,0.4c0.6,0,1.1-0.1,1.5-0.3c0.4-0.2,0.7-0.3,0.8-0.4
		L434,284.6z"/>
	<path class="st1" d="M448.3,285.3h-1.4v-8.1c0-3.6-1.2-5.4-3.6-5.4c-0.6,0-1.2,0.1-1.8,0.3c-0.6,0.2-1.1,0.5-1.6,1
		c-0.5,0.4-0.9,0.9-1.3,1.4s-0.7,1.1-0.8,1.8v9h-1.4v-20.4h1.4v9.4c0.6-1.1,1.4-2,2.5-2.7s2.2-1,3.4-1c0.8,0,1.5,0.1,2.1,0.4
		c0.6,0.3,1.1,0.7,1.4,1.3c0.4,0.6,0.7,1.2,0.8,2c0.2,0.8,0.3,1.7,0.3,2.7V285.3z"/>
	<path class="st1" d="M458.8,285.6c-1,0-2-0.2-2.9-0.6c-0.9-0.4-1.6-1-2.3-1.7c-0.6-0.7-1.1-1.5-1.5-2.4c-0.4-0.9-0.5-1.9-0.5-2.9
		c0-1,0.2-2,0.5-2.9c0.4-0.9,0.9-1.7,1.5-2.4c0.6-0.7,1.4-1.2,2.3-1.6c0.9-0.4,1.8-0.6,2.8-0.6c1,0,2,0.2,2.9,0.6
		c0.9,0.4,1.6,0.9,2.3,1.6c0.6,0.7,1.1,1.5,1.5,2.4c0.4,0.9,0.5,1.9,0.5,2.9c0,0.1,0,0.2,0,0.3c0,0.1,0,0.2,0,0.3H453
		c0.1,0.8,0.3,1.6,0.6,2.3s0.8,1.3,1.3,1.9c0.5,0.5,1.1,0.9,1.8,1.2c0.7,0.3,1.4,0.4,2.2,0.4c0.5,0,1-0.1,1.5-0.2
		c0.5-0.1,0.9-0.3,1.4-0.6c0.4-0.2,0.8-0.5,1.1-0.9c0.3-0.3,0.6-0.7,0.8-1.1l1.2,0.3c-0.2,0.5-0.5,1-0.9,1.4
		c-0.4,0.4-0.9,0.8-1.4,1.1s-1.1,0.6-1.8,0.7C460.1,285.5,459.4,285.6,458.8,285.6z M464.5,277.5c-0.1-0.9-0.2-1.6-0.6-2.4
		c-0.3-0.7-0.7-1.3-1.3-1.8c-0.5-0.5-1.1-0.9-1.8-1.2c-0.7-0.3-1.4-0.4-2.2-0.4c-0.8,0-1.5,0.1-2.2,0.4c-0.7,0.3-1.3,0.7-1.8,1.2
		c-0.5,0.5-0.9,1.1-1.2,1.8c-0.3,0.7-0.5,1.5-0.5,2.3H464.5z"/>
	<path class="st1" d="M497.5,285.3h-1.4v-8.1c0-1.8-0.3-3.2-0.9-4.1c-0.6-0.9-1.4-1.3-2.6-1.3c-0.6,0-1.2,0.1-1.7,0.3
		c-0.5,0.2-1,0.5-1.5,0.9c-0.4,0.4-0.8,0.9-1.2,1.4c-0.3,0.6-0.6,1.2-0.8,1.8v9h-1.4v-8.1c0-1.9-0.3-3.2-0.8-4.1
		c-0.6-0.9-1.4-1.3-2.6-1.3c-0.6,0-1.2,0.1-1.7,0.3c-0.5,0.2-1,0.5-1.5,0.9c-0.4,0.4-0.8,0.9-1.2,1.4s-0.6,1.2-0.8,1.8v9h-1.4v-14.6
		h1.3v3.5c0.6-1.2,1.4-2.1,2.4-2.7s2-1,3.2-1c1.2,0,2.2,0.4,3,1.1c0.8,0.7,1.2,1.7,1.4,2.9c1.4-2.6,3.3-3.9,5.7-3.9
		c1.6,0,2.7,0.6,3.4,1.7c0.7,1.1,1,2.7,1,4.7V285.3z"/>
	<path class="st1" d="M507.8,285.6c-1,0-2-0.2-2.8-0.6s-1.6-0.9-2.3-1.6c-0.6-0.7-1.1-1.5-1.5-2.4c-0.4-0.9-0.5-1.9-0.5-2.9
		c0-1,0.2-2,0.5-2.9c0.4-0.9,0.9-1.7,1.5-2.4c0.6-0.7,1.4-1.2,2.3-1.6c0.9-0.4,1.8-0.6,2.8-0.6s1.9,0.2,2.8,0.6s1.6,0.9,2.3,1.6
		c0.6,0.7,1.1,1.5,1.5,2.4c0.4,0.9,0.5,1.9,0.5,2.9c0,1-0.2,2-0.5,2.9c-0.4,0.9-0.9,1.7-1.5,2.4c-0.6,0.7-1.4,1.2-2.3,1.6
		C509.8,285.4,508.8,285.6,507.8,285.6z M502.1,278.1c0,0.9,0.1,1.7,0.4,2.4c0.3,0.8,0.7,1.4,1.2,2c0.5,0.6,1.1,1,1.8,1.3
		s1.4,0.5,2.2,0.5s1.5-0.2,2.2-0.5s1.3-0.8,1.8-1.4c0.5-0.6,0.9-1.2,1.2-2c0.3-0.8,0.4-1.6,0.4-2.5c0-0.9-0.1-1.7-0.4-2.4
		c-0.3-0.8-0.7-1.4-1.2-2c-0.5-0.6-1.1-1-1.8-1.4c-0.7-0.3-1.4-0.5-2.2-0.5s-1.5,0.2-2.2,0.5c-0.7,0.3-1.3,0.8-1.8,1.4
		c-0.5,0.6-0.9,1.3-1.2,2C502.3,276.4,502.1,277.3,502.1,278.1z"/>
	<path class="st1" d="M524.3,285.6c-1,0-1.9-0.2-2.8-0.6s-1.6-1-2.2-1.7c-0.6-0.7-1.1-1.5-1.5-2.4c-0.3-0.9-0.5-1.8-0.5-2.8
		c0-1,0.2-2,0.5-2.9s0.8-1.7,1.4-2.4c0.6-0.7,1.3-1.2,2.1-1.7c0.8-0.4,1.7-0.6,2.7-0.6c0.6,0,1.2,0.1,1.8,0.3
		c0.6,0.2,1.1,0.4,1.6,0.7s0.9,0.7,1.3,1.1c0.4,0.4,0.7,0.8,1,1.3v-9h1.4v18.5c0,0.5,0.2,0.7,0.6,0.7v1.3c-0.1,0-0.2,0-0.3,0
		c-0.1,0-0.1,0-0.2,0c-0.4,0-0.7-0.1-1-0.4c-0.3-0.3-0.4-0.6-0.4-0.9v-1.6c-0.6,1-1.4,1.7-2.4,2.3
		C526.4,285.3,525.4,285.6,524.3,285.6z M524.5,284.3c0.5,0,1-0.1,1.6-0.3c0.6-0.2,1.1-0.5,1.6-0.9c0.5-0.4,0.9-0.8,1.3-1.2
		s0.6-1,0.6-1.5v-4.8c-0.2-0.5-0.5-1-0.9-1.5c-0.4-0.5-0.8-0.9-1.3-1.2s-1-0.6-1.6-0.8c-0.6-0.2-1.1-0.3-1.6-0.3
		c-0.8,0-1.6,0.2-2.3,0.5s-1.3,0.8-1.8,1.4s-0.9,1.3-1.1,2c-0.3,0.8-0.4,1.5-0.4,2.3c0,0.8,0.1,1.6,0.4,2.4c0.3,0.7,0.7,1.4,1.2,2
		c0.5,0.6,1.1,1,1.8,1.4C523,284.2,523.7,284.3,524.5,284.3z"/>
	<path class="st1" d="M541.7,285.6c-1,0-2-0.2-2.9-0.6c-0.9-0.4-1.6-1-2.3-1.7c-0.6-0.7-1.1-1.5-1.5-2.4c-0.4-0.9-0.5-1.9-0.5-2.9
		c0-1,0.2-2,0.5-2.9c0.4-0.9,0.9-1.7,1.5-2.4c0.6-0.7,1.4-1.2,2.3-1.6c0.9-0.4,1.8-0.6,2.8-0.6c1,0,2,0.2,2.9,0.6
		c0.9,0.4,1.6,0.9,2.3,1.6c0.6,0.7,1.1,1.5,1.5,2.4c0.4,0.9,0.5,1.9,0.5,2.9c0,0.1,0,0.2,0,0.3c0,0.1,0,0.2,0,0.3H536
		c0.1,0.8,0.3,1.6,0.6,2.3s0.8,1.3,1.3,1.9c0.5,0.5,1.1,0.9,1.8,1.2c0.7,0.3,1.4,0.4,2.2,0.4c0.5,0,1-0.1,1.5-0.2
		c0.5-0.1,0.9-0.3,1.4-0.6c0.4-0.2,0.8-0.5,1.1-0.9c0.3-0.3,0.6-0.7,0.8-1.1l1.2,0.3c-0.2,0.5-0.5,1-0.9,1.4
		c-0.4,0.4-0.9,0.8-1.4,1.1s-1.1,0.6-1.8,0.7C543,285.5,542.4,285.6,541.7,285.6z M547.4,277.5c-0.1-0.9-0.2-1.6-0.6-2.4
		c-0.3-0.7-0.7-1.3-1.3-1.8c-0.5-0.5-1.1-0.9-1.8-1.2c-0.7-0.3-1.4-0.4-2.2-0.4c-0.8,0-1.5,0.1-2.2,0.4c-0.7,0.3-1.3,0.7-1.8,1.2
		c-0.5,0.5-0.9,1.1-1.2,1.8c-0.3,0.7-0.5,1.5-0.5,2.3H547.4z"/>
	<path class="st1" d="M558.7,272c-1.3,0-2.5,0.4-3.4,1.2c-1,0.7-1.7,1.8-2.1,3v9.1h-1.4v-14.6h1.3v3.6c0.5-1,1.2-1.9,2-2.5
		c0.8-0.6,1.7-1,2.7-1.1c0.2,0,0.4,0,0.5,0s0.3,0,0.4,0V272z"/>
	<path class="st1" d="M573.3,285.3h-1.4v-8.1c0-1.9-0.3-3.3-0.8-4.1c-0.5-0.9-1.4-1.3-2.5-1.3c-0.6,0-1.2,0.1-1.8,0.3
		c-0.6,0.2-1.2,0.5-1.7,1c-0.5,0.4-1,0.9-1.4,1.4c-0.4,0.6-0.7,1.1-0.9,1.8v9h-1.4v-14.6h1.3v3.5c0.3-0.6,0.7-1.1,1.1-1.5
		c0.4-0.5,0.9-0.8,1.5-1.2c0.6-0.3,1.1-0.6,1.8-0.8s1.3-0.3,1.9-0.3c1.6,0,2.7,0.6,3.4,1.7c0.7,1.1,1,2.7,1,4.8V285.3z"/>
	<path class="st1" d="M590.6,285.5c-1,0-1.9-0.2-2.8-0.6s-1.6-1-2.2-1.7s-1.1-1.5-1.4-2.4c-0.3-0.9-0.5-1.8-0.5-2.8
		c0-1,0.2-1.9,0.5-2.9c0.3-0.9,0.8-1.7,1.4-2.4s1.3-1.3,2.1-1.7c0.8-0.4,1.8-0.6,2.8-0.6c1.3,0,2.4,0.3,3.3,1
		c0.9,0.7,1.7,1.5,2.4,2.4v-3.2h1.3v14.8c0,1-0.2,1.9-0.6,2.6c-0.4,0.7-0.9,1.4-1.5,1.9c-0.6,0.5-1.4,0.9-2.2,1.1
		c-0.8,0.3-1.7,0.4-2.6,0.4c-0.8,0-1.6-0.1-2.3-0.2s-1.3-0.4-1.8-0.7c-0.5-0.3-1-0.6-1.4-1.1c-0.4-0.4-0.8-0.9-1-1.4l1-0.6
		c0.6,1,1.4,1.7,2.4,2.2c1,0.5,2,0.7,3.2,0.7c0.7,0,1.5-0.1,2.1-0.3c0.7-0.2,1.2-0.5,1.7-0.9c0.5-0.4,0.9-0.9,1.2-1.5
		c0.3-0.6,0.4-1.3,0.4-2.1v-3.2c-0.6,1-1.4,1.7-2.4,2.3S591.7,285.5,590.6,285.5z M590.9,284.3c0.6,0,1.2-0.1,1.8-0.3
		s1.1-0.5,1.6-0.9c0.5-0.4,0.9-0.8,1.2-1.3c0.3-0.5,0.5-0.9,0.6-1.4v-4.8c-0.2-0.6-0.5-1.1-0.9-1.6c-0.4-0.5-0.8-0.9-1.3-1.2
		c-0.5-0.3-1-0.6-1.5-0.8s-1.1-0.3-1.7-0.3c-0.9,0-1.7,0.2-2.4,0.6c-0.7,0.4-1.3,0.9-1.8,1.5c-0.5,0.6-0.8,1.3-1.1,2
		s-0.4,1.5-0.4,2.3c0,0.8,0.1,1.6,0.4,2.4c0.3,0.7,0.7,1.4,1.2,2c0.5,0.6,1.1,1,1.8,1.4S590.1,284.3,590.9,284.3z"/>
	<path class="st1" d="M605.4,285.6c-0.7,0-1.3-0.1-1.9-0.4c-0.6-0.2-1.1-0.5-1.5-1c-0.4-0.4-0.8-0.9-1-1.4c-0.2-0.5-0.4-1.1-0.4-1.8
		s0.1-1.2,0.4-1.7s0.7-1,1.2-1.4c0.5-0.4,1.2-0.7,1.9-0.9c0.7-0.2,1.6-0.3,2.5-0.3c0.8,0,1.6,0.1,2.4,0.2c0.8,0.1,1.5,0.3,2.1,0.6
		v-1.4c0-1.4-0.4-2.5-1.2-3.3c-0.8-0.8-1.8-1.2-3.2-1.2c-0.7,0-1.5,0.2-2.3,0.4c-0.8,0.3-1.6,0.7-2.4,1.3l-0.5-1
		c1.9-1.3,3.6-1.9,5.3-1.9c1.8,0,3.1,0.5,4.1,1.5c1,1,1.5,2.4,1.5,4.2v7.1c0,0.5,0.2,0.7,0.6,0.7v1.3c-0.1,0-0.2,0-0.3,0
		c-0.1,0-0.2,0-0.3,0c-0.4,0-0.7-0.1-0.9-0.4s-0.4-0.6-0.4-0.9v-1.2c-0.7,0.9-1.5,1.5-2.6,2C607.8,285.4,606.6,285.6,605.4,285.6z
		 M605.7,284.5c1.1,0,2.1-0.2,3-0.6c0.9-0.4,1.6-1,2.1-1.6c0.3-0.4,0.4-0.8,0.4-1.1v-2.6c-0.7-0.3-1.4-0.5-2.1-0.6
		c-0.7-0.1-1.5-0.2-2.3-0.2c-0.7,0-1.4,0.1-2,0.2c-0.6,0.2-1.1,0.4-1.5,0.7s-0.8,0.6-1,1s-0.3,0.8-0.3,1.3s0.1,0.9,0.3,1.4
		c0.2,0.4,0.4,0.8,0.8,1.1s0.7,0.6,1.2,0.7C604.7,284.4,605.2,284.5,605.7,284.5z"/>
	<path class="st1" d="M623.8,272c-1.3,0-2.5,0.4-3.4,1.2c-1,0.7-1.7,1.8-2.1,3v9.1h-1.4v-14.6h1.3v3.6c0.5-1,1.2-1.9,2-2.5
		c0.8-0.6,1.7-1,2.7-1.1c0.2,0,0.4,0,0.5,0s0.3,0,0.4,0V272z"/>
	<path class="st1" d="M631.7,285.6c-1,0-1.9-0.2-2.8-0.6s-1.6-1-2.2-1.7c-0.6-0.7-1.1-1.5-1.5-2.4c-0.3-0.9-0.5-1.8-0.5-2.8
		c0-1,0.2-2,0.5-2.9s0.8-1.7,1.4-2.4c0.6-0.7,1.3-1.2,2.1-1.7c0.8-0.4,1.7-0.6,2.7-0.6c0.6,0,1.2,0.1,1.8,0.3
		c0.6,0.2,1.1,0.4,1.6,0.7s0.9,0.7,1.3,1.1c0.4,0.4,0.7,0.8,1,1.3v-9h1.4v18.5c0,0.5,0.2,0.7,0.6,0.7v1.3c-0.1,0-0.2,0-0.3,0
		c-0.1,0-0.1,0-0.2,0c-0.4,0-0.7-0.1-1-0.4c-0.3-0.3-0.4-0.6-0.4-0.9v-1.6c-0.6,1-1.4,1.7-2.4,2.3
		C633.8,285.3,632.8,285.6,631.7,285.6z M631.9,284.3c0.5,0,1-0.1,1.6-0.3c0.6-0.2,1.1-0.5,1.6-0.9c0.5-0.4,0.9-0.8,1.3-1.2
		s0.6-1,0.6-1.5v-4.8c-0.2-0.5-0.5-1-0.9-1.5c-0.4-0.5-0.8-0.9-1.3-1.2s-1-0.6-1.6-0.8c-0.6-0.2-1.1-0.3-1.6-0.3
		c-0.8,0-1.6,0.2-2.3,0.5s-1.3,0.8-1.8,1.4s-0.9,1.3-1.1,2c-0.3,0.8-0.4,1.5-0.4,2.3c0,0.8,0.1,1.6,0.4,2.4c0.3,0.7,0.7,1.4,1.2,2
		c0.5,0.6,1.1,1,1.8,1.4C630.4,284.2,631.1,284.3,631.9,284.3z"/>
	<path class="st1" d="M649.1,285.6c-1,0-2-0.2-2.9-0.6c-0.9-0.4-1.6-1-2.3-1.7c-0.6-0.7-1.1-1.5-1.5-2.4c-0.4-0.9-0.5-1.9-0.5-2.9
		c0-1,0.2-2,0.5-2.9c0.4-0.9,0.9-1.7,1.5-2.4c0.6-0.7,1.4-1.2,2.3-1.6c0.9-0.4,1.8-0.6,2.8-0.6c1,0,2,0.2,2.9,0.6
		c0.9,0.4,1.6,0.9,2.3,1.6c0.6,0.7,1.1,1.5,1.5,2.4c0.4,0.9,0.5,1.9,0.5,2.9c0,0.1,0,0.2,0,0.3c0,0.1,0,0.2,0,0.3h-12.8
		c0.1,0.8,0.3,1.6,0.6,2.3s0.8,1.3,1.3,1.9c0.5,0.5,1.1,0.9,1.8,1.2c0.7,0.3,1.4,0.4,2.2,0.4c0.5,0,1-0.1,1.5-0.2
		c0.5-0.1,0.9-0.3,1.4-0.6c0.4-0.2,0.8-0.5,1.1-0.9c0.3-0.3,0.6-0.7,0.8-1.1l1.2,0.3c-0.2,0.5-0.5,1-0.9,1.4
		c-0.4,0.4-0.9,0.8-1.4,1.1s-1.1,0.6-1.8,0.7C650.4,285.5,649.8,285.6,649.1,285.6z M654.8,277.5c-0.1-0.9-0.2-1.6-0.6-2.4
		c-0.3-0.7-0.7-1.3-1.3-1.8c-0.5-0.5-1.1-0.9-1.8-1.2c-0.7-0.3-1.4-0.4-2.2-0.4c-0.8,0-1.5,0.1-2.2,0.4c-0.7,0.3-1.3,0.7-1.8,1.2
		c-0.5,0.5-0.9,1.1-1.2,1.8c-0.3,0.7-0.5,1.5-0.5,2.3H654.8z"/>
	<path class="st1" d="M671.1,285.3h-1.4v-8.1c0-1.9-0.3-3.3-0.8-4.1c-0.5-0.9-1.4-1.3-2.5-1.3c-0.6,0-1.2,0.1-1.8,0.3
		c-0.6,0.2-1.2,0.5-1.7,1c-0.5,0.4-1,0.9-1.4,1.4c-0.4,0.6-0.7,1.1-0.9,1.8v9h-1.4v-14.6h1.3v3.5c0.3-0.6,0.7-1.1,1.1-1.5
		c0.4-0.5,0.9-0.8,1.5-1.2c0.6-0.3,1.1-0.6,1.8-0.8s1.3-0.3,1.9-0.3c1.6,0,2.7,0.6,3.4,1.7c0.7,1.1,1,2.7,1,4.8V285.3z"/>
</g>
</svg>
