<svg id="Layer_1" data-name="Layer 1" xmlns="http://www.w3.org/2000/svg" viewBox="0 0 837 299"><defs><style>.cls-1{font-size:188.44px;fill:#fff;font-family:Raleway-Thin, Raleway;}.cls-2{letter-spacing:-0.04em;}.cls-3{letter-spacing:-0.03em;}.cls-4{letter-spacing:0em;}.cls-5{letter-spacing:-0.03em;}.cls-6{fill:#499f2b;}.cls-7{fill:#0d5e00;}.cls-8{fill:#00261c;}</style></defs><title>Artboard 1</title><text class="cls-1" transform="translate(271.8 240.33)"><tspan class="cls-2">F</tspan><tspan class="cls-3" x="106.09" y="0">r</tspan><tspan class="cls-4" x="162.06" y="0">ø</tspan><tspan class="cls-5" x="272.49" y="0">k</tspan><tspan x="363.13" y="0">en</tspan></text><circle class="cls-6" cx="119.22" cy="180" r="99.83"/><path class="cls-7" d="M19.39,180a99.83,99.83,0,1,0,161.85-78.24l-7.15,18.51a81.15,81.15,0,0,1-54.45,141l-.22.56-.21-.55A81.16,81.16,0,0,1,64.65,120l-7.14-18.48A99.66,99.66,0,0,0,19.39,180Z"/><path class="cls-8" d="M188.4,83.22l-7.16,18.54a99.83,99.83,0,1,1-123.72-.24L50.36,83a119.06,119.06,0,1,0,138,.22Z"/><polygon class="cls-8" points="119.43 240.33 119.43 0.15 185.19 65.91 119.43 240.33"/><polygon class="cls-7" points="119.43 240.33 53.67 65.91 119.43 0.15 119.43 240.33"/></svg>