<?xml version="1.0" encoding="utf-8"?>
<!-- Generator: Adobe Illustrator 21.1.0, SVG Export Plug-In . SVG Version: 6.00 Build 0)  -->
<svg version="1.1" id="Layer_1" xmlns="http://www.w3.org/2000/svg" xmlns:xlink="http://www.w3.org/1999/xlink" x="0px" y="0px"
	 viewBox="0 0 852 313" style="enable-background:new 0 0 852 313;" xml:space="preserve">
<style type="text/css">
	.st0{opacity:0.1;}
	.st1{fill:#FFFFFF;}
	.st2{opacity:0.9;}
	.st3{fill:#499F2B;}
	.st4{fill:#0D5E00;}
	.st5{fill:#00261C;}
	.st6{opacity:0.1;enable-background:new    ;}
	.st7{enable-background:new    ;}
</style>
<g class="st0">
	<g>
		<path class="st1" d="M129.2,314.1C59.7,314.1,3.1,257.5,3.1,188c0-40.7,19.9-79.2,53.1-102.8l3.3-2.3l-4-10.8l73.9-73.9L203.3,72
			l-4.1,11l3.3,2.3c33.1,23.7,52.8,62,52.8,102.5C255.3,257.5,198.7,314.1,129.2,314.1z M58.5,97.3c-27.8,21.8-44.3,55.6-44.3,90.8
			c0,63.5,51.6,115.1,115.1,115.1s115.1-51.6,115.1-115.1c0-35.1-16.4-68.8-44-90.5l-7.2,18.7l-4.3-3.3c-2.3-1.9-4.8-3.6-7.2-5.2
			L179,106l11.7-31l-61.1-61.1l-61.3,61l11.6,30.8l-2.7,1.8c-2.4,1.5-4.9,3.3-7.3,5.2l-4.3,3.4L58.5,97.3z"/>
		<path d="M129.4,0.2l72.2,72.2l-4.2,11.2l4.2,3c32.7,23.4,52.2,61.3,52.2,101.3c0,68.9-55.9,124.7-124.6,124.7S4.6,256.7,4.6,188
			c0-40.2,19.6-78.2,52.5-101.6l4.2-3l-4.1-11L129.4,0.2 M66.3,113.6l-7.1-18.7C30,117,12.7,151.5,12.7,188.1
			c0,64.3,52.3,116.6,116.6,116.6s116.6-52.3,116.6-116.6c0-36.4-17.2-70.9-46.2-92.9l-7.2,18.7l-2.7-2.1c-2.3-1.9-4.8-3.6-7.3-5.3
			l-1.7-1.1l11.6-30.8l-62.8-62.8l-63,62.7l11.5,30.6l-1.7,1.1c-2.5,1.6-5,3.4-7.4,5.3L66.3,113.6 M129.4-4l-2.1,2.1L55.1,70.3
			l-1.4,1.4l0.7,1.8l3.3,8.8L55.4,84C21.7,107.9,1.6,146.8,1.6,188c0,70.4,57.2,127.6,127.6,127.6s127.6-57.3,127.6-127.7
			c0-41-20-79.8-53.5-103.7l-2.3-1.7l3.4-9l0.7-1.8l-1.4-1.4L131.5-1.9L129.4-4L129.4-4z M70.1,75.3L129.6,16l59.3,59.3l-10.9,29
			l-0.9,2.3l2,1.3l1.7,1.1c2.5,1.7,4.9,3.3,7,5.1l0,0l0,0l2.7,2.1l3.2,2.5l1.5-3.8l5.7-14.9c26.3,21.5,41.9,54.1,41.9,88
			c0,62.6-51,113.6-113.6,113.6s-113.6-51-113.6-113.6c0-17.5,4.1-35,12-50.7c7.2-14.5,17.6-27.4,30.2-37.6l5.7,14.9l1.4,3.8
			l3.2-2.5l2.7-2.1c2.4-1.9,4.8-3.6,7.2-5.1l1.7-1.1l2-1.3l-0.8-2.3L70.1,75.3L70.1,75.3z"/>
	</g>
</g>
<g class="st2">
	<g>
		<g>
			<path class="st1" d="M129.2,312.6C60.5,312.6,4.6,256.7,4.6,188c0-40.2,19.6-78.2,52.5-101.6l4.2-3l-4.1-11l72.2-72.2l72.2,72.2
				l-4.2,11.2l4.2,3c32.7,23.4,52.2,61.3,52.2,101.3C253.8,256.8,197.9,312.6,129.2,312.6z M59.2,94.9C30,117,12.7,151.5,12.7,188.1
				c0,64.3,52.3,116.6,116.6,116.6s116.6-52.3,116.6-116.6c0-36.4-17.2-70.9-46.2-92.9l-7.2,18.7l-2.7-2.1c-2.3-1.9-4.8-3.6-7.3-5.3
				l-1.7-1.1l11.6-30.8l-62.8-62.8l-63,62.7l11.5,30.6l-1.7,1.1c-2.5,1.6-5,3.4-7.4,5.3l-2.7,2.1L59.2,94.9z"/>
		</g>
	</g>
	<g>
		<circle class="st3" cx="129.2" cy="188" r="99.8"/>
	</g>
	<g>
		<path class="st4" d="M29.4,188c0,55.1,44.7,99.8,99.8,99.8S229,243.1,229,188c0-31.7-14.8-60-37.8-78.2l-7.1,18.5
			c16.2,14.9,26.3,36.2,26.3,59.8c0,44.6-36.2,81-80.8,81.2l-0.2,0.6l-0.2-0.5C84.4,269.4,48,233,48,188.2
			c0-23.8,10.3-45.2,26.6-60.1l-7.1-18.5C44.3,127.8,29.4,156.2,29.4,188z"/>
	</g>
	<g>
		<path class="st5" d="M198.4,91.2l-7.2,18.5c23,18.3,37.8,46.5,37.8,78.2c0,55.1-44.7,99.8-99.8,99.8S29.4,243,29.4,187.9
			c0-31.8,14.9-60.2,38.1-78.5L60.4,91c-30.4,21.6-50.2,57.1-50.2,97.1c0,65.6,53.4,119.1,119.1,119.1
			c65.6,0,119.1-53.4,119.1-119.1C248.3,148.2,228.6,112.8,198.4,91.2z"/>
	</g>
	<g>
		<g>
			<polygon class="st5" points="129.4,248.3 129.4,8.1 195.2,73.9 			"/>
		</g>
	</g>
	<g>
		<g>
			<polygon class="st4" points="129.4,248.3 63.7,73.9 129.4,8.1 			"/>
		</g>
	</g>
</g>
<g class="st6">
	<g>
		<g>
			<polygon points="299.8,249 299.8,113.7 387.4,113.7 387.4,119.1 305,119.1 305,177 375.4,177 375.4,182.4 305,182.4 305,249 			
				"/>
			<path d="M386.6,114.5v3.8h-82.3v59.5h70.3v3.8h-70.3v66.7h-3.8V114.5H386.6 M388.1,113h-1.5h-86.1H299v1.5v133.8v1.5h1.5h3.8h1.5
				v-1.5v-65.2h68.8h1.5v-1.5v-3.8v-1.5h-1.5h-68.8v-56.5h80.8h1.5v-1.5v-3.8V113L388.1,113z"/>
		</g>
		<g>
			<path d="M403,249v-99.3h5.3v23c3.3-5.9,7.4-10.7,12.5-14.7c5.8-4.6,12-7.2,18.6-8c1.3-0.1,2.4-0.2,3.5-0.3
				c1.1-0.1,2.1-0.1,2.8-0.1h0.8v5.3h-0.9c-9.1,0.4-17,3.4-23.5,8.8c-6.6,5.6-11.2,13.2-13.7,22.7V249H403z"/>
			<path d="M445.7,150.5v3.8h-0.1c-9.3,0.4-17.3,3.4-24,9c-6.7,5.7-11.4,13.4-14,23.2v61.8h-3.8v-97.8h3.8v25.3
				c3.4-6.9,7.9-12.6,13.7-17.1c5.7-4.5,11.8-7.1,18.2-7.8c1.3-0.1,2.4-0.2,3.5-0.3S445,150.5,445.7,150.5 M447.2,149h-1.5
				c-0.7,0-1.7,0-2.8,0.1c-1.1,0.1-2.2,0.2-3.5,0.3c-6.7,0.7-13.1,3.5-19,8.1c-4.5,3.5-8.2,7.6-11.3,12.5v-19.5V149h-1.5h-3.8h-1.5
				v1.5v97.8v1.5h1.5h3.8h1.5v-1.5v-61.6c2.5-9.3,7-16.8,13.5-22.3c6.4-5.3,14.2-8.3,23.1-8.6h0.1h1.5v-1.5v-3.8V149L447.2,149z"/>
		</g>
		<g>
			<path d="M499,251c-4.6,0-8.8-0.6-12.9-1.9c-4-1.3-7.6-3-10.9-5.1l-3,5.2h-5.9v-1.1l4.5-7.3c-5.8-4.8-10.4-10.8-13.7-17.6
				c-3.5-7.1-5.3-15-5.3-23.4c0-7,1.3-13.7,3.8-19.8c2.4-6.1,5.9-11.6,10.2-16.3c4.5-4.8,9.5-8.5,15.1-11.2
				c5.9-2.8,11.9-4.2,18.2-4.2c4.4,0,8.7,0.7,12.8,2c3.8,1.2,7.4,3,10.8,5.3l3.6-5.7h6.7l-5.7,9.1c5.6,4.7,10.1,10.6,13.6,17.5
				c3.6,7.1,5.4,15,5.4,23.3c0,7-1.3,13.6-3.8,19.7c-2.5,6.3-5.9,11.6-10.1,16.3c-4.3,4.7-9.2,8.3-15,11.1
				C511.6,249.6,505.4,251,499,251z M478,239.5c6.3,4.1,13.4,6.2,20.9,6.2c5.6,0,11-1.3,16.2-3.7c5.1-2.4,9.7-5.8,13.6-10
				c4-4.3,7-9.1,9.1-14.7c2.3-5.6,3.3-11.4,3.3-17.8c0-7.3-1.6-14.2-4.6-20.6c-2.9-6-6.9-11.2-11.7-15.4L478,239.5z M499,153.6
				c-5.6,0-11,1.3-16.2,3.7c-5.2,2.5-9.7,5.9-13.5,10.1c-3.8,4.2-6.9,9.2-9.1,14.9c-2.2,5.5-3.2,11.5-3.2,17.8
				c0,7.3,1.6,14.3,4.6,20.8c2.9,6.1,6.9,11.3,11.7,15.4l46.7-76.2c-3.1-1.9-6.3-3.4-9.7-4.6C506.8,154.2,503,153.6,499,153.6z"/>
			<path d="M499.1,149c4.4,0,8.6,0.7,12.6,2s7.8,3.2,11.3,5.6l3.8-6h4.9l-5.3,8.5c5.8,4.8,10.4,10.7,13.9,17.7s5.3,14.7,5.3,23
				c0,6.8-1.2,13.3-3.7,19.4c-2.5,6.2-5.8,11.5-10,16.1c-4.2,4.6-9.1,8.2-14.8,10.9c-5.7,2.7-11.7,4.1-18.1,4.1
				c-4.4,0-8.6-0.6-12.7-1.9c-4.1-1.3-7.9-3.1-11.4-5.5l-3.2,5.5H467v-0.1l4.7-7.7c-5.9-4.8-10.6-10.7-14-17.8
				c-3.5-7.1-5.2-14.8-5.2-23.1c0-6.9,1.2-13.4,3.7-19.5c2.4-6.1,5.8-11.5,10.1-16.1c4.3-4.6,9.2-8.3,14.9-11
				C486.9,150.4,492.8,149,499.1,149 M473.6,237.4l47.5-77.6c-3.3-2.1-6.8-3.8-10.5-5.1s-7.6-1.9-11.6-1.9c-5.8,0-11.3,1.3-16.5,3.8
				s-9.8,5.9-13.7,10.3c-3.9,4.3-7,9.4-9.2,15.1c-2.2,5.6-3.3,11.7-3.3,18.1c0,7.5,1.6,14.6,4.7,21.1S468.3,233.1,473.6,237.4
				 M498.9,246.4c5.8,0,11.3-1.3,16.5-3.8c5.2-2.5,9.8-5.9,13.8-10.2c4-4.3,7.1-9.2,9.3-14.9c2.3-5.7,3.4-11.7,3.4-18.1
				c0-7.5-1.6-14.5-4.7-20.9c-3.1-6.4-7.3-11.8-12.6-16.2L477,239.7C483.7,244.2,491,246.4,498.9,246.4 M499.1,147.5
				c-6.4,0-12.5,1.4-18.5,4.2c-5.8,2.7-10.8,6.4-15.4,11.3c-4.4,4.8-7.9,10.3-10.4,16.6c-2.5,6.2-3.8,12.9-3.8,20
				c0,8.6,1.8,16.6,5.4,23.8c3.2,6.8,7.7,12.6,13.4,17.5l-4,6.6l-0.2,0.4v0.4v0.1v1.5h1.5h4.7h0.9l0.4-0.7l2.4-4.1
				c3.2,2,6.6,3.6,10.4,4.8c4.2,1.3,8.5,2,13.2,2c6.5,0,12.8-1.4,18.7-4.2c5.9-2.8,10.9-6.5,15.3-11.2c4.4-4.8,7.7-10.2,10.3-16.6
				c2.5-6.2,3.8-12.9,3.8-20c0-8.5-1.8-16.4-5.5-23.7c-3.4-6.8-7.9-12.6-13.3-17.3l4.6-7.4l1.4-2.3h-2.7h-4.9H526l-0.4,0.7l-3,4.7
				c-3.3-2.1-6.8-3.8-10.4-4.9C507.9,148.2,503.5,147.5,499.1,147.5L499.1,147.5z M473.2,235.1c-4.5-4-8.2-8.9-10.9-14.6
				c-3-6.3-4.6-13.2-4.6-20.5c0-6.2,1.1-12.2,3.2-17.6c2.1-5.6,5.1-10.5,8.9-14.6c3.7-4.2,8.1-7.5,13.2-10c5-2.4,10.4-3.7,15.9-3.7
				c3.9,0,7.7,0.6,11.1,1.8c3.1,1.1,6.1,2.5,8.9,4.2L473.2,235.1L473.2,235.1z M479,239.2l45.9-74.6c4.5,4,8.2,8.9,10.9,14.6
				c3,6.2,4.5,13,4.5,20.2c0,6.3-1.1,12.1-3.3,17.5c-2.1,5.5-5.1,10.2-9,14.4c-3.9,4.1-8.3,7.5-13.4,9.9c-5,2.4-10.4,3.7-15.9,3.7
				C491.8,244.9,485.1,243,479,239.2L479,239.2z"/>
		</g>
		<g>
			<polygon points="641.7,249 600.4,193.4 574.7,216.7 574.7,248.9 569.3,248.9 569.3,110.1 574.7,110.1 574.7,209.7 640.3,150.2 
				647.6,150.2 604.3,189.8 648.1,249 			"/>
			<path d="M573.9,110.8v100.6l66.7-60.5h5.1l-42.4,38.8l43.3,58.6h-4.5v0l-41.6-56l-26.6,24.1v31.8h-3.8V110.8H573.9 M575.4,109.3
				h-1.5h-3.8h-1.5v1.5v137.4v1.5h1.5h3.8h1.5v-1.5v-31.1l24.9-22.5l40.6,54.7l0.4,0.6h0.8l4.5,0l3,0l-1.8-2.4l-42.5-57.5l41.4-37.9
				l2.8-2.6h-3.9h-5.1H640l-0.4,0.4L575.4,208v-97.2V109.3L575.4,109.3z"/>
		</g>
		<g>
			<path d="M700.7,250.9c-6.4,0-12.7-1.4-18.5-4.2c-5.8-2.7-10.9-6.5-15.2-11.3c-4.3-4.7-7.8-10.3-10.3-16.6
				c-2.6-6.3-3.9-13.1-3.9-20.2c0-7,1.2-13.6,3.7-19.7c2.4-6.1,5.8-11.5,10-16c4.4-4.7,9.4-8.3,14.9-10.8c5.7-2.6,11.8-4,18.3-4
				c6.7,0,13,1.4,18.7,4.1c5.8,2.6,10.8,6.3,15.1,10.9c4.3,4.6,7.7,10,10.2,16.2c2.6,6.3,3.9,13.1,3.9,20.1v2.9h-89.4
				c0.5,5.8,2,11.4,4.3,16.5c2.3,5.3,5.4,10,9.4,14c3.9,4,8.3,7.1,13.3,9.3c5.1,2.3,10.4,3.4,15.8,3.4c3.7,0,7.2-0.5,10.8-1.5
				c3.4-1,6.7-2.3,9.9-4.1c3-1.8,5.8-3.9,8.1-6.4c2.3-2.4,4.2-5.1,5.6-8.1l0.3-0.6l5,1.3l-0.3,0.8c-1.4,3.4-3.4,6.6-6,9.5
				c-2.8,3-5.9,5.5-9.2,7.4c-3.5,2.1-7.3,3.8-11.5,5C709.4,250.3,705.2,250.9,700.7,250.9z M742.1,197c-0.5-6.1-1.8-11.8-4-17.1
				c-2.4-5.5-5.5-10.2-9.1-14c-3.7-3.9-8.1-6.9-13.1-9.1c-4.8-2.2-10.2-3.3-15.9-3.3s-11.1,1.1-15.9,3.3c-5.1,2.3-9.5,5.4-13.1,9.2
				c-3.8,4-6.8,8.7-8.9,14.1c-2.1,5.1-3.4,10.8-3.9,16.9H742.1z"/>
			<path d="M699.7,149c6.5,0,12.7,1.3,18.4,4c5.7,2.6,10.7,6.2,14.9,10.7s7.6,9.9,10.1,16c2.5,6.2,3.8,12.8,3.8,19.8v2.1h-89.5
				c0.5,6.3,2,12.2,4.4,17.6c2.4,5.5,5.6,10.2,9.5,14.2s8.4,7.2,13.5,9.5c5.1,2.3,10.5,3.5,16.1,3.5c3.8,0,7.4-0.5,11-1.5
				s6.9-2.4,10.1-4.2c3.1-1.8,5.9-4,8.3-6.5c2.4-2.5,4.3-5.3,5.7-8.3l3.6,0.9c-1.4,3.4-3.4,6.5-5.9,9.3c-2.6,2.8-5.6,5.3-9,7.3
				c-3.5,2.1-7.2,3.7-11.3,4.9c-4.2,1.3-8.4,1.9-12.7,1.9c-6.4,0-12.5-1.4-18.2-4.1s-10.7-6.4-15-11.1c-4.3-4.7-7.7-10.2-10.2-16.4
				c-2.5-6.2-3.8-12.8-3.8-19.9c0-6.9,1.2-13.4,3.6-19.4c2.4-6,5.7-11.3,9.9-15.8s9.1-8.1,14.7-10.6
				C687.3,150.3,693.3,149,699.7,149 M657.4,197.8l85.5,0v0v0c-0.4-6.5-1.8-12.6-4.1-18.1c-2.4-5.5-5.5-10.3-9.3-14.2
				c-3.8-4-8.3-7.1-13.3-9.3c-5-2.3-10.4-3.4-16.2-3.4s-11.2,1.1-16.2,3.4c-5,2.3-9.5,5.4-13.3,9.4s-6.9,8.8-9.1,14.3
				C659.1,185.4,657.8,191.4,657.4,197.8 M699.7,147.5c-6.6,0-12.9,1.4-18.6,4c-5.6,2.5-10.7,6.2-15.2,10.9
				c-4.3,4.6-7.7,10.1-10.2,16.3c-2.5,6.1-3.7,12.9-3.7,20c0,7.1,1.3,14,3.9,20.5c2.6,6.4,6.1,12.1,10.5,16.9
				c4.4,4.8,9.6,8.7,15.5,11.4c5.9,2.8,12.3,4.2,18.8,4.2c4.6,0,8.9-0.6,13.1-2c4.2-1.2,8-2.9,11.6-5c3.4-2,6.5-4.5,9.3-7.6
				c2.7-3,4.8-6.3,6.2-9.7l0.7-1.6l-1.7-0.4l-3.6-0.9l-1.2-0.3l-0.5,1.1c-1.4,2.9-3.2,5.6-5.4,7.9c-2.3,2.4-5,4.5-8,6.2
				c-3.2,1.8-6.4,3.1-9.7,4.1c-3.5,1-7,1.4-10.6,1.4c-5.3,0-10.5-1.1-15.5-3.4c-4.8-2.2-9.2-5.3-13-9.2c-3.8-3.9-6.9-8.6-9.2-13.8
				c-2.1-4.8-3.5-10-4.1-15.5h87.9h1.5v-1.5v-2.1c0-7.1-1.3-13.9-3.9-20.4c-2.6-6.3-6.1-11.8-10.4-16.5c-4.3-4.7-9.5-8.4-15.4-11
				C712.9,148.9,706.5,147.5,699.7,147.5L699.7,147.5z M659,196.3c0.5-5.7,1.8-11,3.8-15.8c2.1-5.3,5.1-9.9,8.8-13.8
				c3.5-3.7,7.9-6.8,12.8-9.1c4.7-2.2,9.9-3.3,15.6-3.3s10.9,1.1,15.6,3.3c4.9,2.2,9.2,5.2,12.8,9c3.6,3.7,6.6,8.3,9,13.8
				c2.1,4.9,3.4,10.3,3.9,16L659,196.3L659,196.3z"/>
		</g>
		<g>
			<path d="M840.7,249v-55.2c0-14-2-24.4-5.8-30.9c-3.9-6.3-9.9-9.4-18.5-9.4c-4.8,0-9.4,0.8-13.7,2.5c-4.4,1.6-8.5,3.9-12.5,7
				c-3.8,2.9-7.1,6.4-10,10.5c-2.7,3.9-4.9,8.3-6.3,13.1v62.4h-5.3v-99.3h5.3v23.2c1.8-2.9,3.9-5.8,6.4-8.4
				c3.2-3.4,6.8-6.3,10.6-8.6c3.8-2.3,7.8-4.1,12.3-5.6c4.5-1.4,8.9-2,13.2-2c10.3,0,17.9,3.8,22.6,11.1c4.7,7.4,7.1,19,7.1,34.4
				V249H840.7z"/>
			<path d="M816.3,148.9c10,0,17.4,3.6,22,10.8s7,18.6,7,34v54.6h-0.1h-3.8v-54.5c0-14.3-2-24.7-5.9-31.3c-4-6.5-10.3-9.8-19.1-9.8
				c-4.8,0-9.5,0.8-14,2.5c-4.6,1.7-8.8,4.1-12.7,7.1s-7.3,6.6-10.2,10.7c-2.9,4.1-5,8.6-6.4,13.4v61.8h-3.8v-97.8h3.8v25.3
				c2-3.9,4.6-7.5,7.7-10.8c3.1-3.3,6.6-6.2,10.4-8.5c3.8-2.3,7.8-4.1,12.1-5.5C807.6,149.6,811.9,148.9,816.3,148.9 M816.3,147.4
				c-4.4,0-8.8,0.7-13.4,2.1c-4.5,1.5-8.6,3.3-12.4,5.7c-3.8,2.3-7.4,5.3-10.7,8.8c-1.9,2-3.6,4.2-5.1,6.4v-19.8v-1.5h-1.5h-3.8
				h-1.5v1.5v97.8v1.5h1.5h3.8h1.5v-1.5v-61.6c1.4-4.7,3.4-9,6.1-12.7c2.9-4,6.2-7.5,9.9-10.4c3.9-3,8-5.3,12.3-6.9
				c4.2-1.6,8.8-2.4,13.5-2.4c8.2,0,14.1,3,17.8,9.1c3.8,6.4,5.7,16.6,5.7,30.5v54.5v1.5h1.5h3.8h0.1h1.5v-1.5v-54.6
				c0-15.6-2.4-27.3-7.2-34.8C834.7,151.3,826.9,147.4,816.3,147.4L816.3,147.4z"/>
		</g>
	</g>
</g>
<g class="st7">
	<g>
		<path class="st1" d="M300.5,248.3V114.5h86.1v3.8h-82.3v59.5h70.3v3.8h-70.3v66.7H300.5z"/>
		<path class="st1" d="M445.6,154.3c-9.3,0.4-17.3,3.4-24,9c-6.7,5.7-11.4,13.4-14,23.2v61.8h-3.8v-97.8h3.8v25.3
			c3.4-6.9,7.9-12.6,13.7-17.1c5.7-4.5,11.8-7.1,18.2-7.8c1.3-0.1,2.4-0.2,3.5-0.3s2-0.1,2.7-0.1v3.8H445.6z"/>
		<path class="st1" d="M467,248.3l4.7-7.7c-5.9-4.8-10.6-10.7-14-17.8c-3.5-7.1-5.2-14.8-5.2-23.1c0-6.9,1.2-13.4,3.7-19.5
			c2.4-6.1,5.8-11.5,10.1-16.1c4.3-4.6,9.2-8.3,14.9-11c5.7-2.7,11.6-4.1,17.9-4.1c4.4,0,8.6,0.7,12.6,2s7.8,3.2,11.3,5.6l3.8-6h4.9
			l-5.3,8.5c5.8,4.8,10.4,10.7,13.9,17.7s5.3,14.7,5.3,23c0,6.8-1.2,13.3-3.7,19.4c-2.5,6.2-5.8,11.5-10,16.1s-9.1,8.2-14.8,10.9
			s-11.7,4.1-18.1,4.1c-4.4,0-8.6-0.6-12.7-1.9c-4.1-1.3-7.9-3.1-11.4-5.5l-3.2,5.5L467,248.3L467,248.3z M456.3,200.1
			c0,7.5,1.6,14.6,4.7,21.1s7.3,11.9,12.6,16.2l47.5-77.6c-3.3-2.1-6.8-3.8-10.5-5.1s-7.6-1.9-11.6-1.9c-5.8,0-11.3,1.3-16.5,3.8
			s-9.8,5.9-13.7,10.3c-3.9,4.3-7,9.4-9.2,15.1C457.4,187.6,456.3,193.7,456.3,200.1z M498.9,246.4c5.8,0,11.3-1.3,16.5-3.8
			c5.2-2.5,9.8-5.9,13.8-10.2s7.1-9.2,9.3-14.9c2.3-5.7,3.4-11.7,3.4-18.1c0-7.5-1.6-14.5-4.7-20.9c-3.1-6.4-7.3-11.8-12.6-16.2
			L477,239.7C483.7,244.2,491,246.4,498.9,246.4z"/>
		<path class="st1" d="M642.1,248.3l-41.6-56l-26.6,24.1v31.8h-3.8V110.8h3.8v100.6l66.7-60.5h5.1l-42.4,38.8l43.3,58.6L642.1,248.3
			L642.1,248.3z"/>
		<path class="st1" d="M700.7,250.2c-6.4,0-12.5-1.4-18.2-4.1c-5.7-2.7-10.7-6.4-15-11.1c-4.3-4.7-7.7-10.2-10.2-16.4
			s-3.8-12.8-3.8-19.9c0-6.9,1.2-13.4,3.6-19.4c2.4-6,5.7-11.3,9.9-15.8s9.1-8.1,14.7-10.6c5.6-2.6,11.6-3.9,18-3.9
			c6.5,0,12.7,1.3,18.4,4c5.7,2.6,10.7,6.2,14.9,10.7s7.6,9.9,10.1,16c2.5,6.2,3.8,12.8,3.8,19.8v2.1h-89.5c0.5,6.3,2,12.2,4.4,17.6
			c2.4,5.5,5.6,10.2,9.5,14.2s8.4,7.2,13.5,9.5s10.5,3.5,16.1,3.5c3.8,0,7.4-0.5,11-1.5s6.9-2.4,10.1-4.2c3.1-1.8,5.9-4,8.3-6.5
			c2.4-2.5,4.3-5.3,5.7-8.3l3.6,0.9c-1.4,3.4-3.4,6.5-5.9,9.3c-2.6,2.8-5.6,5.3-9,7.3c-3.5,2.1-7.2,3.7-11.3,4.9
			C709.2,249.6,705,250.2,700.7,250.2z M742.9,197.8c-0.4-6.5-1.8-12.6-4.1-18.1c-2.4-5.5-5.5-10.3-9.3-14.2
			c-3.8-4-8.3-7.1-13.3-9.3c-5-2.3-10.4-3.4-16.2-3.4s-11.2,1.1-16.2,3.4c-5,2.3-9.5,5.4-13.3,9.4s-6.9,8.8-9.1,14.3
			c-2.3,5.5-3.6,11.5-4,17.9L742.9,197.8L742.9,197.8z"/>
		<path class="st1" d="M845.2,248.3h-3.8v-54.5c0-14.3-2-24.7-5.9-31.3c-4-6.5-10.3-9.8-19.1-9.8c-4.8,0-9.5,0.8-14,2.5
			c-4.6,1.7-8.8,4.1-12.7,7.1s-7.3,6.6-10.2,10.7c-2.9,4.1-5,8.6-6.4,13.4v61.8h-3.8v-97.8h3.8v25.3c2-3.9,4.6-7.5,7.7-10.8
			c3.1-3.3,6.6-6.2,10.4-8.5c3.8-2.3,7.8-4.1,12.1-5.5c4.3-1.3,8.6-2,13-2c10,0,17.4,3.6,22,10.8s7,18.6,7,34L845.2,248.3
			L845.2,248.3z"/>
	</g>
</g>
</svg>
