<?xml version="1.0" encoding="utf-8"?>
<!-- Generator: Adobe Illustrator 21.1.0, SVG Export Plug-In . SVG Version: 6.00 Build 0)  -->
<svg version="1.1" id="Layer_1" xmlns="http://www.w3.org/2000/svg" xmlns:xlink="http://www.w3.org/1999/xlink" x="0px" y="0px"
	 viewBox="0 0 842 313" style="enable-background:new 0 0 842 313;" xml:space="preserve">
<style type="text/css">
	.st0{enable-background:new    ;}
	.st1{fill:#FFFFFF;}
	.st2{fill:#499F2B;}
	.st3{fill:#0D5E00;}
	.st4{fill:#00261C;}
</style>
<g>
	<g class="st0">
		<path class="st1" d="M295.5,248.3V114.5h86.1v3.8h-82.3v59.5h70.3v3.8h-70.3v66.7H295.5z"/>
		<path class="st1" d="M440.6,154.3c-9.3,0.4-17.3,3.4-24,9c-6.7,5.7-11.4,13.4-14,23.2v61.8h-3.8v-97.8h3.8v25.3
			c3.4-6.9,7.9-12.6,13.7-17.1c5.7-4.5,11.8-7.1,18.2-7.8c1.3-0.1,2.4-0.2,3.5-0.3c1.1-0.1,2-0.1,2.7-0.1V154.3z"/>
		<path class="st1" d="M462,248.3l4.7-7.7c-5.9-4.8-10.6-10.7-14-17.8c-3.5-7.1-5.2-14.8-5.2-23.1c0-6.9,1.2-13.4,3.7-19.5
			c2.4-6.1,5.8-11.5,10.1-16.1c4.3-4.6,9.2-8.3,14.9-11c5.7-2.7,11.6-4.1,17.9-4.1c4.4,0,8.6,0.7,12.6,2c4,1.3,7.8,3.2,11.3,5.6
			l3.8-6h4.9l-5.3,8.5c5.8,4.8,10.4,10.7,13.9,17.7c3.5,7,5.3,14.7,5.3,23c0,6.8-1.2,13.3-3.7,19.4c-2.5,6.2-5.8,11.5-10,16.1
			c-4.2,4.6-9.1,8.2-14.8,10.9s-11.7,4.1-18.1,4.1c-4.4,0-8.6-0.6-12.7-1.9c-4.1-1.3-7.9-3.1-11.4-5.5l-3.2,5.5H462z M451.3,200.1
			c0,7.5,1.6,14.6,4.7,21.1c3.1,6.5,7.3,11.9,12.6,16.2l47.5-77.6c-3.3-2.1-6.8-3.8-10.5-5.1c-3.7-1.3-7.6-1.9-11.6-1.9
			c-5.8,0-11.3,1.3-16.5,3.8c-5.2,2.5-9.8,5.9-13.7,10.3c-3.9,4.3-7,9.4-9.2,15.1C452.4,187.6,451.3,193.7,451.3,200.1z
			 M493.9,246.4c5.8,0,11.3-1.3,16.5-3.8c5.2-2.5,9.8-5.9,13.8-10.2c4-4.3,7.1-9.2,9.3-14.9c2.3-5.7,3.4-11.7,3.4-18.1
			c0-7.5-1.6-14.5-4.7-20.9c-3.1-6.4-7.3-11.8-12.6-16.2L472,239.7C478.7,244.2,486,246.4,493.9,246.4z"/>
		<path class="st1" d="M637.1,248.3l-41.6-56l-26.6,24.1v31.8h-3.8V110.8h3.8v100.6l66.7-60.5h5.1l-42.4,38.8l43.3,58.6H637.1z"/>
		<path class="st1" d="M695.7,250.2c-6.4,0-12.5-1.4-18.2-4.1c-5.7-2.7-10.7-6.4-15-11.1c-4.3-4.7-7.7-10.2-10.2-16.4
			c-2.5-6.2-3.8-12.8-3.8-19.9c0-6.9,1.2-13.4,3.6-19.4c2.4-6,5.7-11.3,9.9-15.8c4.2-4.5,9.1-8.1,14.7-10.6c5.6-2.6,11.6-3.9,18-3.9
			c6.5,0,12.7,1.3,18.4,4c5.7,2.6,10.7,6.2,14.9,10.7c4.2,4.5,7.6,9.9,10.1,16c2.5,6.2,3.8,12.8,3.8,19.8v2.1h-89.5
			c0.5,6.3,2,12.2,4.4,17.6c2.4,5.5,5.6,10.2,9.5,14.2c3.9,4,8.4,7.2,13.5,9.5c5.1,2.3,10.5,3.5,16.1,3.5c3.8,0,7.4-0.5,11-1.5
			c3.6-1,6.9-2.4,10.1-4.2c3.1-1.8,5.9-4,8.3-6.5c2.4-2.5,4.3-5.3,5.7-8.3l3.6,0.9c-1.4,3.4-3.4,6.5-5.9,9.3c-2.6,2.8-5.6,5.3-9,7.3
			c-3.5,2.1-7.2,3.7-11.3,4.9C704.2,249.6,700,250.2,695.7,250.2z M737.9,197.8c-0.4-6.5-1.8-12.6-4.1-18.1
			c-2.4-5.5-5.5-10.3-9.3-14.2c-3.8-4-8.3-7.1-13.3-9.3c-5-2.3-10.4-3.4-16.2-3.4c-5.8,0-11.2,1.1-16.2,3.4c-5,2.3-9.5,5.4-13.3,9.4
			c-3.8,4-6.9,8.8-9.1,14.3c-2.3,5.5-3.6,11.5-4,17.9H737.9z"/>
		<path class="st1" d="M840.2,248.3h-3.8v-54.5c0-14.3-2-24.7-5.9-31.3c-4-6.5-10.3-9.8-19.1-9.8c-4.8,0-9.5,0.8-14,2.5
			c-4.6,1.7-8.8,4.1-12.7,7.1c-3.9,3-7.3,6.6-10.2,10.7c-2.9,4.1-5,8.6-6.4,13.4v61.8h-3.8v-97.8h3.8v25.3c2-3.9,4.6-7.5,7.7-10.8
			c3.1-3.3,6.6-6.2,10.4-8.5c3.8-2.3,7.8-4.1,12.1-5.5c4.3-1.3,8.6-2,13-2c10,0,17.4,3.6,22,10.8c4.6,7.2,7,18.6,7,34V248.3z"/>
	</g>
	<g>
		<path class="st1" d="M124.2,312.6C55.5,312.6-0.4,256.7-0.4,188c0-40.2,19.6-78.2,52.5-101.6l4.2-3l-4.1-11l72.2-72.2l72.2,72.2
			l-4.2,11.2l4.2,3c32.7,23.4,52.2,61.3,52.2,101.3C248.8,256.8,192.9,312.6,124.2,312.6z M54.2,94.9C25,117,7.7,151.5,7.7,188.1
			c0,64.3,52.3,116.6,116.6,116.6s116.6-52.3,116.6-116.6c0-36.4-17.2-70.9-46.2-92.9l-7.2,18.7l-2.7-2.1c-2.3-1.9-4.8-3.6-7.3-5.3
			l-1.7-1.1l11.6-30.8l-62.8-62.8l-63,62.7l11.5,30.6l-1.7,1.1c-2.5,1.6-5,3.4-7.4,5.3l-2.7,2.1L54.2,94.9z"/>
	</g>
	<circle class="st2" cx="124.2" cy="188" r="99.8"/>
	<path class="st3" d="M24.4,188c0,55.1,44.7,99.8,99.8,99.8S224,243.1,224,188c0-31.7-14.8-60-37.8-78.2l-7.1,18.5
		c16.2,14.9,26.3,36.2,26.3,59.8c0,44.6-36.2,81-80.8,81.2l-0.2,0.6l-0.2-0.5C79.4,269.4,43,233,43,188.2
		c0-23.8,10.3-45.2,26.6-60.1l-7.1-18.5C39.3,127.8,24.4,156.2,24.4,188z"/>
	<path class="st4" d="M193.4,91.2l-7.2,18.5c23,18.3,37.8,46.5,37.8,78.2c0,55.1-44.7,99.8-99.8,99.8S24.4,243,24.4,187.9
		c0-31.8,14.9-60.2,38.1-78.5L55.4,91C25,112.6,5.2,148.1,5.2,188.1c0,65.6,53.4,119.1,119.1,119.1c65.6,0,119.1-53.4,119.1-119.1
		C243.3,148.2,223.6,112.8,193.4,91.2z"/>
	<g>
		<polygon class="st4" points="124.4,248.3 124.4,8.1 190.2,73.9 		"/>
	</g>
	<g>
		<polygon class="st3" points="124.4,248.3 58.7,73.9 124.4,8.1 		"/>
	</g>
</g>
</svg>
