<?xml version="1.0" encoding="utf-8"?>
<!-- Generator: Adobe Illustrator 19.0.0, SVG Export Plug-In . SVG Version: 6.00 Build 0)  -->
<svg version="1.1" id="Layer_1" xmlns="http://www.w3.org/2000/svg" xmlns:xlink="http://www.w3.org/1999/xlink" x="0px" y="0px"
	 viewBox="5 439.5 852 313" style="enable-background:new 5 439.5 852 313;" xml:space="preserve">
<style type="text/css">
	.st0{opacity:0.1;}
	.st1{fill:#FFFFFF;}
	.st2{opacity:0.9;}
	.st3{fill:#499F2B;}
	.st4{fill:#0D5E00;}
	.st5{fill:#00261C;}
	.st6{opacity:0.5;enable-background:new    ;}
	.st7{enable-background:new    ;}
</style>
<g class="st0">
	<g>
		<path class="st1" d="M134.2,753.6C64.7,753.6,8.1,697,8.1,627.5c0-40.7,19.9-79.2,53.1-102.8l3.3-2.3l-4-10.8l73.9-73.9l73.9,73.8
			l-4.1,11l3.3,2.3c33.1,23.7,52.8,62,52.8,102.5C260.3,697,203.7,753.6,134.2,753.6z M63.5,536.8c-27.8,21.8-44.3,55.6-44.3,90.8
			c0,63.5,51.6,115.1,115.1,115.1s115.1-51.6,115.1-115.1c0-35.1-16.4-68.8-44-90.5l-7.2,18.7l-4.3-3.3c-2.3-1.9-4.8-3.6-7.2-5.2
			l-2.7-1.8l11.7-31l-61.1-61.1l-61.3,61l11.6,30.8l-2.7,1.8c-2.4,1.5-4.9,3.3-7.3,5.2l-4.3,3.4L63.5,536.8z"/>
		<path d="M134.4,439.7l72.2,72.2l-4.2,11.2l4.2,3c32.7,23.4,52.2,61.3,52.2,101.3c0,68.9-55.9,124.7-124.6,124.7
			S9.6,696.2,9.6,627.5c0-40.2,19.6-78.2,52.5-101.6l4.2-3l-4.1-11L134.4,439.7 M71.3,553.1l-7.1-18.7C35,556.5,17.7,591,17.7,627.6
			c0,64.3,52.3,116.6,116.6,116.6s116.6-52.3,116.6-116.6c0-36.4-17.2-70.9-46.2-92.9l-7.2,18.7l-2.7-2.1c-2.3-1.9-4.8-3.6-7.3-5.3
			l-1.7-1.1l11.6-30.8l-62.8-62.8l-63,62.7l11.5,30.6l-1.7,1.1c-2.5,1.6-5,3.4-7.4,5.3L71.3,553.1 M134.4,435.5l-2.1,2.1l-72.2,72.2
			l-1.4,1.4l0.7,1.8l3.3,8.8l-2.3,1.7c-33.7,23.9-53.8,62.8-53.8,104c0,70.4,57.2,127.6,127.6,127.6s127.6-57.3,127.6-127.7
			c0-41-20-79.8-53.5-103.7L206,522l3.4-9l0.7-1.8l-1.4-1.4l-72.2-72.2L134.4,435.5L134.4,435.5z M75.1,514.8l59.5-59.3l59.3,59.3
			l-10.9,29l-0.9,2.3l2,1.3l1.7,1.1c2.5,1.7,4.9,3.3,7,5.1l0,0l0,0l2.7,2.1l3.2,2.5l1.5-3.8l5.7-14.9c26.3,21.5,41.9,54.1,41.9,88
			c0,62.6-51,113.6-113.6,113.6s-113.6-51-113.6-113.6c0-17.5,4.1-35,12-50.7c7.2-14.5,17.6-27.4,30.2-37.6l5.7,14.9l1.4,3.8
			l3.2-2.5l2.7-2.1c2.4-1.9,4.8-3.6,7.2-5.1l1.7-1.1l2-1.3l-0.8-2.3L75.1,514.8L75.1,514.8z"/>
	</g>
</g>
<g class="st2">
	<g>
		<g>
			<path class="st1" d="M134.2,752.1c-68.7,0-124.6-55.9-124.6-124.6c0-40.2,19.6-78.2,52.5-101.6l4.2-3l-4.1-11l72.2-72.2
				l72.2,72.2l-4.2,11.2l4.2,3c32.7,23.4,52.2,61.3,52.2,101.3C258.8,696.3,202.9,752.1,134.2,752.1z M64.2,534.4
				C35,556.5,17.7,591,17.7,627.6c0,64.3,52.3,116.6,116.6,116.6s116.6-52.3,116.6-116.6c0-36.4-17.2-70.9-46.2-92.9l-7.2,18.7
				l-2.7-2.1c-2.3-1.9-4.8-3.6-7.3-5.3l-1.7-1.1l11.6-30.8l-62.8-62.8l-63,62.7l11.5,30.6l-1.7,1.1c-2.5,1.6-5,3.4-7.4,5.3l-2.7,2.1
				L64.2,534.4z"/>
		</g>
	</g>
	<g>
		<circle class="st3" cx="134.2" cy="627.5" r="99.8"/>
	</g>
	<g>
		<path class="st4" d="M34.4,627.5c0,55.1,44.7,99.8,99.8,99.8s99.8-44.7,99.8-99.8c0-31.7-14.8-60-37.8-78.2l-7.1,18.5
			c16.2,14.9,26.3,36.2,26.3,59.8c0,44.6-36.2,81-80.8,81.2l-0.2,0.6l-0.2-0.5c-44.8,0-81.2-36.4-81.2-81.2
			c0-23.8,10.3-45.2,26.6-60.1l-7.1-18.5C49.3,567.3,34.4,595.7,34.4,627.5z"/>
	</g>
	<g>
		<path class="st5" d="M203.4,530.7l-7.2,18.5c23,18.3,37.8,46.5,37.8,78.2c0,55.1-44.7,99.8-99.8,99.8s-99.8-44.7-99.8-99.8
			c0-31.8,14.9-60.2,38.1-78.5l-7.1-18.4c-30.4,21.6-50.2,57.1-50.2,97.1c0,65.6,53.4,119.1,119.1,119.1
			c65.6,0,119.1-53.4,119.1-119.1C253.3,587.7,233.6,552.3,203.4,530.7z"/>
	</g>
	<g>
		<g>
			<polygon class="st5" points="134.4,687.8 134.4,447.6 200.2,513.4 			"/>
		</g>
	</g>
	<g>
		<g>
			<polygon class="st4" points="134.4,687.8 68.7,513.4 134.4,447.6 			"/>
		</g>
	</g>
</g>
<g class="st6">
	<g>
		<g>
			<polygon points="304.5,688.8 304.5,553 392.6,553 392.6,558.8 310.3,558.8 310.3,616.3 380.6,616.3 380.6,622.1 310.3,622.1 
				310.3,688.8 			"/>
			<path d="M391.6,554v3.8h-82.3v59.5h70.3v3.8h-70.3v66.7h-3.8V554H391.6 M393.6,552h-2h-86.1h-2v2v133.8v2h2h3.8h2v-2v-64.7h68.3
				h2v-2v-3.8v-2h-2h-68.3v-55.5h80.3h2v-2V554L393.6,552L393.6,552z"/>
		</g>
		<g>
			<path d="M407.8,688.8V589h5.8v22.3c3.2-5.6,7.2-10.1,12.1-13.9c5.8-4.6,12.1-7.3,18.7-8c1.3-0.1,2.4-0.2,3.5-0.3
				c1.1-0.1,2.1-0.1,2.8-0.1h1v5.8h-1.1c-9,0.4-16.9,3.3-23.4,8.8c-6.5,5.6-11.1,13.1-13.6,22.6v62.7h-5.8V688.8z"/>
			<path d="M450.7,590v3.8h-0.1c-9.3,0.4-17.3,3.4-24,9c-6.7,5.7-11.4,13.4-14,23.2v61.8h-3.8V590h3.8v25.3
				c3.4-6.9,7.9-12.6,13.7-17.1c5.7-4.5,11.8-7.1,18.2-7.8c1.3-0.1,2.4-0.2,3.5-0.3C449.1,590,450,590,450.7,590 M452.7,588h-2
				c-0.7,0-1.7,0-2.9,0.1c-1.1,0.1-2.2,0.2-3.5,0.3l0,0l0,0c-6.8,0.7-13.3,3.5-19.2,8.2c-4.1,3.2-7.5,6.9-10.5,11.2V590v-2h-2h-3.8
				h-2v2v97.8v2h2h3.8h2v-2v-61.5c2.5-9.2,6.9-16.5,13.3-21.9c6.3-5.3,14-8.1,22.7-8.5h0.1h2v-2v-3.8V588L452.7,588z"/>
		</g>
		<g>
			<path d="M504,690.8c-4.6,0-8.9-0.6-13-1.9c-4-1.3-7.5-2.9-10.8-5l-3,5.1H471v-1.5l4.4-7.2c-5.8-4.8-10.3-10.8-13.6-17.6
				c-3.5-7.1-5.3-15-5.3-23.5c0-7.1,1.3-13.8,3.8-19.9c2.4-6.2,5.9-11.7,10.3-16.4c4.5-4.9,9.5-8.5,15.2-11.2c6-2.8,12-4.2,18.3-4.2
				c4.4,0,8.7,0.7,12.9,2c3.7,1.2,7.3,2.9,10.7,5.1l3.5-5.6h7.3l-5.8,9.3c5.5,4.7,10.1,10.6,13.5,17.5c3.6,7.2,5.4,15.1,5.4,23.4
				c0,7-1.3,13.7-3.8,19.8c-2.5,6.3-5.9,11.7-10.2,16.4s-9.2,8.4-15.1,11.1C516.7,689.4,510.4,690.8,504,690.8z M483.4,678.9
				c6.2,4,13.1,6,20.5,6c5.6,0,11-1.2,16.1-3.7c5.1-2.4,9.6-5.8,13.5-10c4-4.3,7-9.1,9.1-14.6c2.2-5.6,3.3-11.4,3.3-17.7
				c0-7.3-1.5-14.2-4.6-20.5c-2.9-5.9-6.7-11-11.5-15.1L483.4,678.9z M504,593.3c-5.6,0-11,1.2-16.1,3.7c-5.2,2.5-9.7,5.9-13.4,10.1
				c-3.8,4.2-6.9,9.2-9,14.8c-2.1,5.5-3.2,11.4-3.2,17.7c0,7.3,1.5,14.3,4.6,20.7c2.8,6,6.7,11.1,11.4,15.1l46.4-75.8
				c-3-1.8-6.2-3.3-9.5-4.5C511.8,593.9,508,593.3,504,593.3z"/>
			<path d="M504.1,588.5c4.4,0,8.6,0.7,12.6,2s7.8,3.2,11.3,5.6l3.8-6h4.9l-5.3,8.5c5.8,4.8,10.4,10.7,13.9,17.7s5.3,14.7,5.3,23
				c0,6.8-1.2,13.3-3.7,19.4c-2.5,6.2-5.8,11.5-10,16.1c-4.2,4.6-9.1,8.2-14.8,10.9s-11.7,4.1-18.1,4.1c-4.4,0-8.6-0.6-12.7-1.9
				s-7.9-3.1-11.4-5.5l-3.2,5.5H472v-0.1l4.7-7.7c-5.9-4.8-10.6-10.7-14-17.8c-3.5-7.1-5.2-14.8-5.2-23.1c0-6.9,1.2-13.4,3.7-19.5
				c2.4-6.1,5.8-11.5,10.1-16.1c4.3-4.6,9.2-8.3,14.9-11C491.9,589.9,497.8,588.5,504.1,588.5 M478.6,676.9l47.5-77.6
				c-3.3-2.1-6.8-3.8-10.5-5.1c-3.7-1.3-7.6-1.9-11.6-1.9c-5.8,0-11.3,1.3-16.5,3.8s-9.8,5.9-13.7,10.3c-3.9,4.3-7,9.4-9.2,15.1
				c-2.2,5.6-3.3,11.7-3.3,18.1c0,7.5,1.6,14.6,4.7,21.1S473.3,672.6,478.6,676.9 M503.9,685.9c5.8,0,11.3-1.3,16.5-3.8
				c5.2-2.5,9.8-5.9,13.8-10.2c4-4.3,7.1-9.2,9.3-14.9c2.3-5.7,3.4-11.7,3.4-18.1c0-7.5-1.6-14.5-4.7-20.9
				c-3.1-6.4-7.3-11.8-12.6-16.2L482,679.2C488.7,683.7,496,685.9,503.9,685.9 M504.1,586.5c-6.5,0-12.7,1.4-18.8,4.3
				c-5.8,2.8-10.9,6.5-15.5,11.4c-4.5,4.8-8,10.4-10.5,16.7c-2.5,6.2-3.8,13-3.8,20.2c0,8.6,1.8,16.7,5.4,24
				c3.2,6.7,7.6,12.5,13.2,17.3l-3.8,6.2l-0.3,0.5v0.6v0.1v2h2h4.7h1.2l0.6-1l2.1-3.7c3.1,1.9,6.5,3.4,10.1,4.6
				c4.2,1.3,8.6,2,13.3,2c6.6,0,12.9-1.4,19-4.3c6-2.8,11-6.6,15.4-11.4s7.8-10.3,10.4-16.7c2.6-6.2,3.8-13,3.8-20.1
				c0-8.5-1.9-16.6-5.5-23.9c-3.4-6.7-7.8-12.5-13.1-17.2l4.4-7l1.9-3.1h-3.6h-4.9h-1.1l-0.6,0.9l-2.7,4.3c-3.2-2-6.6-3.6-10.1-4.7
				C513,587.2,508.6,586.5,504.1,586.5L504.1,586.5z M478.1,673.9c-4.2-3.8-7.7-8.5-10.3-14c-3-6.3-4.5-13.1-4.5-20.2
				c0-6.2,1.1-12,3.2-17.4c2.1-5.5,5.1-10.4,8.8-14.5c3.6-4.1,8-7.4,13.1-9.8c5-2.4,10.2-3.6,15.6-3.6c3.9,0,7.6,0.6,10.9,1.8
				c2.9,1,5.7,2.3,8.4,3.9L478.1,673.9L478.1,673.9z M484.7,678.6l45.3-73.7c4.3,3.9,7.7,8.6,10.3,14c3,6.2,4.5,12.9,4.5,20
				c0,6.2-1.1,11.9-3.3,17.4c-2.1,5.4-5,10.1-8.9,14.3c-3.8,4.1-8.3,7.4-13.2,9.8c-5,2.4-10.2,3.6-15.6,3.6
				C497,683.9,490.6,682.1,484.7,678.6L484.7,678.6z"/>
		</g>
		<g>
			<polygon points="646.6,688.8 605.4,633.3 579.9,656.3 579.9,688.7 574.1,688.7 574.1,549.3 579.9,549.3 579.9,648.6 645.2,589.4 
				653.3,589.4 609.6,629.3 653.6,688.8 			"/>
			<path d="M578.9,550.3v100.6l66.7-60.5h5.1l-42.4,38.8l43.3,58.6h-4.5l0,0l-41.6-56l-26.6,24.1v31.8h-3.8V550.3H578.9
				 M580.9,548.3h-2h-3.8h-2v2v137.4v2h2h3.8h2v-2v-30.9l24.3-22l40.3,54.2l0.6,0.8h1h4.5h4l-2.4-3.2L611,629.5l41.1-37.6l3.8-3.5
				h-5.1h-5.1h-0.8l-0.6,0.5l-63.4,57.5v-96.1V548.3L580.9,548.3z"/>
		</g>
		<g>
			<path d="M705.7,690.7c-6.5,0-12.7-1.4-18.6-4.2c-5.8-2.7-10.9-6.6-15.3-11.3c-4.3-4.7-7.8-10.4-10.4-16.7
				c-2.6-6.4-3.9-13.2-3.9-20.3c0-7,1.2-13.7,3.7-19.8c2.5-6.1,5.9-11.6,10.1-16.1c4.4-4.7,9.4-8.3,15-10.8c5.7-2.6,11.9-4,18.4-4
				c6.8,0,13.1,1.4,18.8,4.1c5.8,2.6,10.9,6.3,15.2,10.9s7.7,10.1,10.3,16.3c2.6,6.4,3.9,13.2,3.9,20.2v3.1h-89.4
				c0.6,5.7,2,11.2,4.2,16.2c2.3,5.2,5.4,9.9,9.3,13.9c3.9,4,8.3,7.1,13.2,9.3c5,2.3,10.3,3.4,15.7,3.4c3.7,0,7.2-0.5,10.7-1.5
				c3.4-1,6.7-2.3,9.9-4.1c3-1.7,5.7-3.9,8.1-6.3c2.3-2.4,4.1-5.1,5.5-8l0.3-0.7l5.5,1.4l-0.4,1.1c-1.4,3.4-3.5,6.6-6.1,9.6
				c-2.8,3-5.9,5.5-9.2,7.5c-3.6,2.1-7.3,3.8-11.5,5C714.5,690.1,710.2,690.7,705.7,690.7z M746.8,636.3c-0.5-5.9-1.8-11.6-4-16.7
				c-2.4-5.5-5.4-10.1-9.1-13.9c-3.7-3.8-8-6.9-13-9.1c-4.8-2.2-10.1-3.3-15.8-3.3s-11,1.1-15.8,3.3c-5,2.3-9.4,5.4-13,9.2
				c-3.8,4-6.8,8.7-8.9,14c-2.1,5-3.4,10.5-3.9,16.5H746.8z"/>
			<path d="M704.7,588.5c6.5,0,12.7,1.3,18.4,4c5.7,2.6,10.7,6.2,14.9,10.7s7.6,9.9,10.1,16c2.5,6.2,3.8,12.8,3.8,19.8v2.1h-89.5
				c0.5,6.3,2,12.2,4.4,17.6c2.4,5.5,5.6,10.2,9.5,14.2s8.4,7.2,13.5,9.5s10.5,3.5,16.1,3.5c3.8,0,7.4-0.5,11-1.5s6.9-2.4,10.1-4.2
				c3.1-1.8,5.9-4,8.3-6.5c2.4-2.5,4.3-5.3,5.7-8.3l3.6,0.9c-1.4,3.4-3.4,6.5-5.9,9.3c-2.6,2.8-5.6,5.3-9,7.3
				c-3.5,2.1-7.2,3.7-11.3,4.9c-4.2,1.3-8.4,1.9-12.7,1.9c-6.4,0-12.5-1.4-18.2-4.1s-10.7-6.4-15-11.1s-7.7-10.2-10.2-16.4
				c-2.5-6.2-3.8-12.8-3.8-19.9c0-6.9,1.2-13.4,3.6-19.4c2.4-6,5.7-11.3,9.9-15.8s9.1-8.1,14.7-10.6
				C692.3,589.8,698.3,588.5,704.7,588.5 M662.4,637.3h85.5l0,0l0,0c-0.4-6.5-1.8-12.6-4.1-18.1c-2.4-5.5-5.5-10.3-9.3-14.2
				c-3.8-4-8.3-7.1-13.3-9.3c-5-2.3-10.4-3.4-16.2-3.4s-11.2,1.1-16.2,3.4s-9.5,5.4-13.3,9.4s-6.9,8.8-9.1,14.3
				C664.1,624.9,662.8,630.9,662.4,637.3 M704.7,586.5c-6.7,0-13,1.4-18.8,4.1c-5.7,2.5-10.8,6.3-15.3,11
				c-4.3,4.6-7.8,10.2-10.3,16.4s-3.7,13-3.7,20.1c0,7.2,1.3,14.2,3.9,20.6c2.6,6.5,6.2,12.2,10.6,17c4.5,4.9,9.7,8.8,15.6,11.6
				c6,2.8,12.4,4.3,19.1,4.3c4.6,0,9-0.7,13.3-2c4.3-1.2,8.1-2.9,11.7-5.1c3.4-2,6.6-4.6,9.4-7.7c2.7-3.1,4.8-6.4,6.3-9.9l0.9-2.1
				l-2.2-0.6l-3.6-0.9l-1.6-0.4l-0.7,1.5c-1.3,2.9-3.1,5.5-5.3,7.8c-2.3,2.4-4.9,4.5-7.9,6.2c-3.1,1.8-6.3,3.1-9.6,4
				c-3.5,1-6.9,1.4-10.5,1.4c-5.2,0-10.4-1.1-15.3-3.3c-4.8-2.2-9.1-5.2-12.9-9.1c-3.8-3.9-6.9-8.5-9.1-13.6
				c-2.1-4.6-3.4-9.6-4-14.8H752h2v-2v-2.1c0-7.1-1.3-14.1-3.9-20.5c-2.6-6.4-6.1-11.9-10.5-16.6s-9.6-8.5-15.5-11.2
				C718.1,587.9,711.6,586.5,704.7,586.5L704.7,586.5z M664.6,635.3c0.5-5.5,1.8-10.5,3.7-15.1c2.1-5.2,5-9.8,8.7-13.7
				c3.5-3.7,7.8-6.7,12.7-9c4.6-2.1,9.8-3.2,15.4-3.2c5.6,0,10.7,1.1,15.4,3.2c4.9,2.1,9.1,5.1,12.7,8.9c3.6,3.7,6.6,8.2,8.9,13.6
				c2,4.7,3.2,9.9,3.8,15.3H664.6L664.6,635.3z"/>
		</g>
		<g>
			<path d="M845.4,688.8v-55.5c0-14-1.9-24.3-5.8-30.8c-3.9-6.3-9.8-9.3-18.2-9.3c-4.8,0-9.4,0.8-13.6,2.4c-4.4,1.6-8.5,3.9-12.4,7
				c-3.7,2.9-7.1,6.4-10,10.5c-2.7,3.8-4.8,8.2-6.2,13v62.7h-5.8V589h5.8v22.5c1.7-2.7,3.7-5.3,6-7.7c3.2-3.5,6.8-6.4,10.6-8.7
				c3.8-2.3,7.8-4.1,12.3-5.6c4.6-1.4,8.9-2,13.3-2c10.4,0,18.1,3.8,22.8,11.3c4.7,7.4,7.2,19.1,7.2,34.5v55.6h-6V688.8z"/>
			<path d="M821.3,588.4c10,0,17.4,3.6,22,10.8s7,18.6,7,34v54.6h-0.1h-3.8v-54.5c0-14.3-2-24.7-5.9-31.3c-4-6.5-10.3-9.8-19.1-9.8
				c-4.8,0-9.5,0.8-14,2.5c-4.6,1.7-8.8,4.1-12.7,7.1s-7.3,6.6-10.2,10.7s-5,8.6-6.4,13.4v61.8h-3.8v-97.8h3.8v25.3
				c2-3.9,4.6-7.5,7.7-10.8c3.1-3.3,6.6-6.2,10.4-8.5c3.8-2.3,7.8-4.1,12.1-5.5C812.6,589.1,816.9,588.4,821.3,588.4 M821.3,586.4
				c-4.5,0-8.9,0.7-13.6,2.1c-4.6,1.5-8.7,3.4-12.6,5.7c-3.9,2.3-7.5,5.3-10.8,8.8c-1.5,1.6-3,3.4-4.2,5.1v-18.3v-2h-2h-3.8h-2v2
				v97.8v2h2h3.8h2v-2v-61.5c1.4-4.6,3.4-8.8,6-12.5c2.8-4,6.1-7.4,9.8-10.3c3.9-3,7.9-5.2,12.2-6.8c4.2-1.6,8.7-2.4,13.3-2.4
				c8,0,13.7,2.9,17.4,8.8c3.7,6.3,5.6,16.5,5.6,30.3v54.5v2h2h3.8h0.1h2v-2v-54.6c0-15.7-2.5-27.5-7.3-35.1
				C840,590.3,832,586.4,821.3,586.4L821.3,586.4z"/>
		</g>
	</g>
</g>
<g class="st7">
	<g>
		<path class="st1" d="M747.9,637.3c-0.4-6.5-1.8-12.6-4.1-18.1c-2.4-5.5-5.5-10.3-9.3-14.2c-3.8-4-8.3-7.1-13.3-9.3
			c-5-2.3-10.4-3.4-16.2-3.4s-11.2,1.1-16.2,3.4s-9.5,5.4-13.3,9.4s-6.9,8.8-9.1,14.3c-2.3,5.5-3.6,11.5-4,17.9H747.9L747.9,637.3z"
			/>
	</g>
</g>
</svg>
