<?xml version="1.0" encoding="utf-8"?>
<!-- Generator: Adobe Illustrator 21.1.0, SVG Export Plug-In . SVG Version: 6.00 Build 0)  -->
<svg version="1.1" id="Layer_1" xmlns="http://www.w3.org/2000/svg" xmlns:xlink="http://www.w3.org/1999/xlink" x="0px" y="0px"
	 viewBox="0 0 238.3 299" style="enable-background:new 0 0 238.3 299;" xml:space="preserve">
<style type="text/css">
	.st0{fill:#499F2B;}
	.st1{fill:#0D5E00;}
	.st2{fill:#00261C;}
</style>
<title>Artboard 1</title>
<circle class="st0" cx="119.2" cy="180" r="99.8"/>
<path class="st1" d="M19.4,180c0,55.1,44.7,99.8,99.8,99.8S219,235.1,219,180c0-30.5-13.9-59.3-37.8-78.2l-7.1,18.5
	c33.1,30.3,35.3,81.6,5,114.7c-15.3,16.7-36.9,26.2-59.5,26.3l-0.2,0.6l-0.2-0.5C74.4,261.3,38,225,38,180.2
	c0-22.9,9.7-44.8,26.6-60.2l-7.1-18.5C33.4,120.4,19.4,149.4,19.4,180z"/>
<path class="st2" d="M188.4,83.2l-7.2,18.5c43.2,34.2,50.5,97,16.2,140.2s-97,50.5-140.2,16.2S6.7,161.2,41,118
	c4.8-6.1,10.4-11.6,16.5-16.5L50.4,83C-3.3,121-16,195.3,22.1,249s112.3,66.3,166,28.3s66.3-112.3,28.3-166
	C208.6,100.4,199.2,90.9,188.4,83.2L188.4,83.2z"/>
<polygon class="st2" points="119.4,240.3 119.4,0.2 185.2,65.9 "/>
<polygon class="st1" points="119.4,240.3 53.7,65.9 119.4,0.2 "/>
</svg>
